<?xml version="1.0" standalone="no"?>
<!DOCTYPE svg PUBLIC "-//W3C//DTD SVG 1.1//EN" "http://www.w3.org/Graphics/SVG/1.1/DTD/svg11.dtd" >
<svg xmlns="http://www.w3.org/2000/svg">
<metadata></metadata>
<defs>
<font id="heroquestregular" horiz-adv-x="1596" >
<font-face units-per-em="2100" ascent="1680" descent="-420" />
<missing-glyph horiz-adv-x="500" />
<glyph unicode="!" horiz-adv-x="548" d="M172 1416h140l128 -4l8 -24v-12q-84 -40 -84 -288v-276q0 -297 52 -384l8 -24q-41 -44 -108 -44l-20 4q-38 0 -96 -56l-28 -4h-20l-4 4h-4q12 59 12 116v544q0 382 -40 408l-16 32q20 8 72 8zM288 240q72 0 136 -104l4 -24q0 -11 -108 -120q-4 -44 -12 -44h-8 q-160 94 -160 156q0 50 132 136h16z" />
<glyph unicode="&#x22;" horiz-adv-x="896" d="M108 1538q152 -32 204 -32h16l48 4l4 -4v-4q-32 -189 -116 -352q-57 -111 -104 -164l-4 4v4l12 156v80q0 143 -68 296zM524 1494l252 -36h16l4 -12q-144 -275 -244 -400q-72 -78 -116 -108h-4l-8 8q96 190 96 416l-8 128l4 4h8z" />
<glyph unicode="#" horiz-adv-x="1440" d="M536 895l204 -12h12l8 -8v-12q-110 -140 -112 -172v-4q2 -15 92 -20l164 4q42 0 52 96l4 48q0 11 -40 60v4q0 10 80 16l24 -4l184 -8h8l8 -8v-12q-112 -147 -112 -176v-8q0 -9 20 -12l80 12h4l120 -4l4 -4v-4q-20 -10 -28 -40l4 -44v-20q0 -25 -32 -48h-4l-132 20 q-100 0 -100 -40q-48 -94 -48 -156l8 -8h248v-8q-12 0 -24 -24v-28l4 -44q-12 -44 -32 -52h-8l-204 20q-32 -12 -32 -84q0 -56 64 -116l-40 -12q-79 8 -232 8l-4 4v20q39 29 64 116v48q0 15 -104 24q-200 -7 -200 -24l-4 -24q0 -107 56 -160l-40 -12q-86 8 -232 8l-8 16 q58 67 92 160q0 28 -68 28h-196l-8 8v4q23 0 80 144q17 16 36 16q115 -28 156 -28h12q64 0 64 116v52q0 28 -52 28l-96 4h-60l-44 -4l-12 4v4q23 16 80 148l20 16l132 -20h24q52 0 52 80v44q0 11 -36 68v4zM528 331l40 -4h204q96 0 96 16q36 135 36 172v8q0 16 -196 24 q-136 -13 -136 -36q-44 -140 -44 -180z" />
<glyph unicode="$" horiz-adv-x="1216" d="M724 1611l4 -12l-8 -148v-48h40q211 0 356 -76v-4q-35 -1 -152 -144l-4 -4h-4q-94 76 -220 76q-18 -8 -20 -16v-12l4 -44l-4 -64v-52l4 -324q0 -21 264 -288q52 -66 52 -76q-51 -134 -140 -248q-68 -74 -144 -120l-8 -16l36 -96q0 -12 -72 -12h-176q-120 0 -120 20l-4 20 v24q27 25 40 48v16q-145 44 -344 208l-4 4v20q43 50 184 264l4 4h32q20 -10 20 -32v-24q0 -157 132 -268h16q7 0 12 20l-4 256v48l4 76q0 60 -64 116q-287 322 -288 364q97 148 244 236l72 40l-32 112q23 24 280 152zM352 1099q0 -96 104 -156l32 -8q21 0 64 20v8 q-44 37 -44 44l8 196l-4 24h-8q-36 0 -152 -128zM664 395q44 -37 44 -44l-8 -192q0 -32 16 -32q42 13 152 132q-43 160 -132 160h-24q-44 -10 -48 -24z" />
<glyph unicode="%" horiz-adv-x="1560" d="M864 1368l40 -4h40l208 4q212 -6 212 -20q0 -32 -72 -84q-167 -159 -192 -256q-195 -386 -340 -628q-88 -186 -88 -288q0 -42 28 -76v-4q0 -20 -228 -20l-252 8l-4 4v20q0 25 68 68q358 539 516 908q84 144 84 252q0 23 -40 96q0 16 20 16v4zM312 1316q212 0 288 -272 q7 0 16 -44q-1 -11 -168 -168q-26 -43 -28 -80h-8q-228 45 -228 92q-77 123 -84 188v16l140 144q63 79 64 104l-4 16zM268 1052q31 -108 72 -108q39 -32 56 -32h4q0 14 40 84q-34 132 -92 132h-4q-29 0 -76 -72v-4zM1144 556q52 0 216 -64q94 -149 100 -216v-16l-164 -172 q-33 -51 -40 -76l4 -16l-4 -4h-12q-205 0 -280 260q-20 38 -20 52q0 15 168 172q26 43 28 80h4zM1160 396q0 -15 -40 -84q36 -136 96 -136q76 51 76 80q-32 108 -72 108q-40 32 -56 32h-4z" />
<glyph unicode="&#x26;" horiz-adv-x="1348" d="M524 1414q0 -76 224 -280q24 -25 24 -36q-6 -75 -132 -272q-7 0 -8 -20q151 -158 192 -288h12l92 156h4q32 -6 32 -24q0 -60 -64 -236v-4q159 -200 288 -268l60 -44v-16q-5 -40 -36 -40q-173 23 -428 180q-196 -160 -196 -252h-8q-120 0 -288 136q-115 149 -192 344v16 q0 55 192 224l68 84q0 13 -204 212q0 44 124 268q119 160 244 160zM328 978l84 -92q0 -32 8 -32h8q123 79 180 260v4q0 11 -108 112h-8q-89 -34 -164 -236v-16zM308 502q84 -242 244 -336l12 4v44q112 101 112 132q-30 131 -176 292q-23 20 -40 20h-8q-139 -122 -144 -156z " />
<glyph unicode="'" horiz-adv-x="496" d="M392 1546l4 -12q-74 -335 -272 -588h-8q36 184 36 280q0 112 -52 264q22 15 260 48q0 8 32 8z" />
<glyph unicode="(" horiz-adv-x="932" d="M592 1357h20q150 -40 212 -120q0 -5 -36 -16q-215 -287 -444 -636v-8q22 0 80 -120q85 -145 324 -388q46 -34 84 -76l-140 -60l-64 -40h-12q-160 145 -280 320q-236 334 -236 368v4q0 26 240 324q232 283 232 384q0 62 20 64z" />
<glyph unicode=")" horiz-adv-x="916" d="M316 1352q20 -5 20 -12v-32q0 -126 296 -480l184 -240l-464 -656q-18 -51 -24 -52h-16q-125 0 -208 192l-4 40v12q0 36 60 36h80l344 392l12 16v8q-36 0 -216 308q-168 300 -252 300l-16 32q0 93 164 132z" />
<glyph unicode="*" horiz-adv-x="1112" d="M468 1538q228 -70 228 -84q-48 -104 -48 -216l4 -12q63 19 136 120q0 60 16 60q19 0 204 -176h4v-8q0 -15 -96 -32q-123 -33 -260 -108v-8q255 -165 324 -180l4 -4v-16q-71 -59 -200 -140q-12 4 -12 24q12 0 16 32q0 37 -112 120q-4 12 -24 12h-4l-4 -40q10 -212 68 -212 l4 -12l-8 -24l-160 -4h-32q-92 0 -92 12q44 66 44 168v120q-161 -99 -172 -172l4 -12l-4 -4h-4q-34 21 -192 164v4q0 16 44 16q212 72 312 148l4 16q-31 30 -196 112q-95 88 -136 88v12q154 120 180 120h8q9 0 20 -68q75 -102 132 -112h4v152q0 93 -12 140l4 4h4z" />
<glyph unicode="+" horiz-adv-x="1140" d="M704 898l4 -4v-4q-12 -40 -12 -92v-208q0 -29 28 -36l96 4h32q64 0 92 -76l96 -152v-4q0 -10 -36 -12l-300 4l-8 -24v-48q0 -193 60 -248q-18 -8 -52 -8h-228q-92 0 -92 12l-4 20q47 22 64 60q32 78 32 216q-8 20 -24 20q-88 0 -192 -40h-8l-152 288l4 4l180 4l180 -4 l4 12q0 112 -60 236q168 52 296 80z" />
<glyph unicode="," horiz-adv-x="512" d="M264 216h16q75 0 132 -112v-16q0 -64 -244 -296q-15 -12 -28 -12q-40 8 -40 40q83 120 96 172q-64 67 -64 92v12q0 34 116 116z" />
<glyph unicode="-" horiz-adv-x="1136" d="M304 640l112 -52q85 -20 180 -20l436 4l4 -4v-8q-75 -124 -148 -276l-4 -4h-4q-100 44 -244 44l-440 -4h-76l-20 4v12l196 304h8z" />
<glyph unicode="." horiz-adv-x="484" d="M236 228h12q82 0 136 -116v-16q-108 -108 -108 -116q0 -40 -12 -40h-4q-160 93 -160 156v4q0 38 120 124z" />
<glyph unicode="/" horiz-adv-x="1068" d="M576 1458h56l320 -16h4l12 -12q0 -28 -52 -80q-84 -123 -120 -188q-64 -232 -192 -616q-104 -247 -104 -412v-8q0 -79 48 -120q0 -10 -32 -16h-24l-348 8l-36 -4l-8 12v20q0 14 60 80q133 298 240 624q136 471 136 548q0 86 -64 152v4q0 24 104 24z" />
<glyph unicode="0" horiz-adv-x="1536" d="M640 1704q174 0 372 -188q152 -167 240 -360q120 -258 184 -468v-20q-34 -55 -360 -392q-148 -175 -148 -260v-28q0 -8 -8 -8h-12q-140 0 -364 148q-190 153 -268 356q-176 332 -176 452v12q0 34 324 376q206 250 208 324v12l-4 40q8 4 12 4zM520 936q77 -273 268 -460 q50 -40 64 -40q6 0 12 12v28q0 9 -4 16q0 11 116 136q29 33 40 60q-45 223 -240 456q-36 24 -48 24h-16q-192 -194 -192 -232z" />
<glyph unicode="1" horiz-adv-x="844" d="M640 1714h8q8 0 8 -12q-16 -101 -16 -624v-428q0 -515 40 -548q12 -38 64 -96q0 -16 -108 -16h-348q-60 0 -164 4q-21 0 -24 40v12q47 27 68 44q88 80 88 448q8 97 8 280v76q0 221 -52 332v4q6 17 64 48q0 6 12 24q0 30 -120 80q-28 21 -28 44q466 288 500 288z" />
<glyph unicode="2" horiz-adv-x="1480" d="M544 1708q373 0 592 -256q128 -195 128 -252q-14 -106 -156 -396q-113 -208 -304 -428q4 0 4 -4q230 -8 568 -12l4 -8v-8q-169 -156 -212 -280q-35 -84 -48 -84h-8q-142 20 -308 20q-493 -8 -696 -8l-8 12q259 250 404 444q384 497 384 736v16q0 144 -144 196 q-51 20 -100 20q-139 0 -216 -164l-20 -4h-4q-14 8 -116 192q-115 175 -144 236q4 0 4 4q34 -8 72 -12l264 36q49 0 60 4z" />
<glyph unicode="3" horiz-adv-x="1440" d="M496 1718q252 0 448 -132q135 -127 160 -208q58 -107 64 -168q-59 -67 -232 -204l-52 -36q1 -6 84 -36q240 -124 372 -516q-57 -122 -244 -280q-201 -148 -400 -148h-44q-282 0 -500 304l-44 72v4h12q178 -128 344 -128h52q222 0 476 208v12q-38 130 -328 320 q-74 48 -140 48q-10 0 -44 -40l-24 -4h-24q-6 2 -52 120q-64 112 -64 128q4 0 4 4q33 -8 72 -8q222 0 436 228v12q0 65 -132 132q-51 24 -100 24h-20q-126 0 -192 -152q-13 -8 -24 -8h-4q-15 9 -108 180q-111 167 -148 240q4 0 4 4q30 -8 56 -8h32q20 0 232 32q63 0 72 4z " />
<glyph unicode="4" horiz-adv-x="1532" d="M1200 1714q0 -4 4 -4q-48 -70 -48 -196q-4 -342 -4 -528q0 -57 4 -184q-4 -17 -4 -88q0 -16 48 -24l40 4h48q46 0 140 -4l4 -8q-63 -212 -88 -212q-83 12 -144 12q-48 0 -48 -36q13 -279 40 -328q0 -24 56 -116q-11 -12 -96 -12h-288q-180 0 -180 20l-4 24v16 q84 61 84 96q52 99 52 320q-4 8 -4 12q-318 -8 -476 -8q-232 0 -232 24q0 4 -4 12q0 24 160 176q244 403 360 676q32 71 32 92q0 40 -44 84v4q409 116 592 176zM628 730q0 -16 120 -16q172 6 172 32v8q-44 34 -44 52v32q0 54 20 440h-4q-50 -64 -252 -504q-12 -31 -12 -44z " />
<glyph unicode="5" horiz-adv-x="1524" d="M508 1714h8q15 0 112 -48q81 -28 220 -28q60 0 572 24l4 -8q-95 -173 -172 -352l-8 -4h-4q-74 20 -164 20h-72q-82 0 -224 -4q-38 0 -132 -312q-24 -40 -24 -64q0 -3 12 -12q152 48 228 48q335 0 500 -504v-16q-46 -103 -292 -280q-300 -184 -496 -184h-56 q-254 0 -420 280v8h8q147 -108 316 -108q290 0 536 296v4q-13 58 -184 172q-171 112 -300 112h-8q-50 0 -136 -40h-4q-20 5 -20 12v20q36 128 124 520q4 0 4 16v20l-16 4q-148 0 -148 20q62 96 224 380z" />
<glyph unicode="6" horiz-adv-x="1364" d="M844 1714h84q79 0 236 -24q15 4 52 4q-107 -167 -212 -352l-8 -4h-4q-26 0 -76 84q-67 60 -128 60h-12q-192 0 -348 -340q-28 -91 -28 -100v-4h4q144 56 272 56h24q371 0 496 -420q68 -196 68 -208q-17 -90 -136 -272q-158 -204 -280 -204h-12q-307 0 -524 204 q-212 224 -212 672q0 583 412 780q161 68 332 68zM452 658v-4q4 -70 152 -300q151 -168 192 -168q8 4 12 4v60q160 152 160 172q-16 128 -192 368q-75 84 -108 84h-8q-22 0 -152 -140q-56 -48 -56 -76z" />
<glyph unicode="7" horiz-adv-x="1588" d="M792 1718q121 -4 672 -8q24 -8 24 -16v-12q-124 -101 -356 -616h304q8 -1 8 -8q-36 -57 -164 -328h-8q-54 28 -168 28q-32 0 -84 4q-26 0 -124 -248q-116 -292 -116 -444q0 -30 28 -72l-12 -8h-420q-91 0 -104 32v8q144 140 184 240q64 148 192 500v4q-8 0 -8 4l-20 -4 h-188q-8 0 -8 8q0 16 180 292q44 -20 128 -20h40q35 0 72 124q68 129 100 236v4l-28 -4q-240 4 -296 4q-154 0 -256 -148q-6 0 -16 -8h-8q-15 0 -56 100q-184 310 -184 320q0 23 692 36z" />
<glyph unicode="8" horiz-adv-x="1300" d="M640 1714h36q259 0 436 -380q28 -79 28 -88q-17 -37 -216 -196q-9 0 -76 -60q127 -39 196 -144q68 -96 156 -412v-8q-109 -184 -256 -332q-135 -104 -260 -104h-44q-259 0 -540 436v8q104 359 196 452q77 76 168 104v4q-185 145 -276 228l-12 16v8q37 166 184 336 q137 132 280 132zM524 1418q69 -190 192 -268h16v36q69 63 92 96q-49 172 -168 264h-12q-100 -82 -120 -128zM448 622q37 -151 176 -312q96 -92 116 -92q8 4 12 4v48q136 133 136 156q-17 122 -184 332q-53 52 -80 52q-176 -151 -176 -188z" />
<glyph unicode="9" horiz-adv-x="1392" d="M524 1714h16q321 0 544 -220q208 -235 208 -656v-100q0 -513 -376 -684q-119 -64 -232 -64h-44q-275 0 -488 368v4l8 4q190 -144 380 -144q307 0 428 352q16 39 16 56v8q-145 -60 -300 -60q-392 0 -520 440q-64 193 -64 204q73 264 300 448q79 44 124 44zM448 1246 q114 -325 320 -444q16 6 16 12v48q148 140 148 172q-28 156 -224 388q-43 28 -56 28h-8q-31 0 -196 -192v-12z" />
<glyph unicode=":" horiz-adv-x="532" d="M268 1040q80 0 152 -104q12 -20 12 -40v-12q-4 -17 -124 -132q0 -52 -12 -52q-93 37 -180 136q-16 26 -16 40v12q0 42 140 144zM324 256h4q70 0 104 -152v-32q0 -43 -48 -56l-144 -40q-15 -30 -28 -36h-4q-14 0 -80 160l-8 52v8q0 54 68 76z" />
<glyph unicode=";" horiz-adv-x="572" d="M304 1066h16q74 0 148 -112l4 -20v-12q0 -23 -124 -144v-28q0 -21 -12 -24h-4q-192 114 -192 184q0 52 128 140q5 16 36 16zM300 266q90 0 164 -120l4 -28q0 -85 -292 -360l-24 -8h-16q-36 23 -36 44q87 124 112 196v8q-76 86 -76 120q0 43 148 144z" />
<glyph unicode="&#x3c;" horiz-adv-x="784" d="M680 838l4 -4v-4q-364 -341 -364 -380l-20 -32q0 -20 240 -272l128 -148v-4q0 -23 -40 -64h-16q-199 84 -412 288q-100 106 -100 144v12q0 80 220 304q68 87 68 104v8q0 15 -16 36v8l108 -8h12q114 0 188 12z" />
<glyph unicode="=" horiz-adv-x="1140" d="M280 842l192 -16l524 4l4 -4v-4q-42 -73 -96 -196q0 -22 -172 -28q-246 8 -344 20l-40 -4h-236l-12 12v4q133 188 156 208zM364 402q123 0 668 -32l8 -8q-26 -38 -56 -180l-24 -32q-75 32 -176 32l-436 -24h-240l-8 8v8q16 9 68 192q0 36 196 36z" />
<glyph unicode="&#x3e;" horiz-adv-x="876" d="M104 848q78 -12 176 -12h56l104 8l-16 -44v-24q39 -58 296 -288q56 -93 56 -136v-12q-55 -132 -240 -248q-82 -44 -316 -136q0 -10 -32 -16h-16q-36 26 -48 76q199 227 304 284q95 62 128 108q-56 112 -384 368l-72 64l4 4v4z" />
<glyph unicode="?" horiz-adv-x="916" d="M112 1448q46 0 172 -112h8q107 100 204 100h16q178 0 296 -332l8 -36q0 -19 -344 -356q-48 36 -60 36h-4q-12 -37 -12 -92q0 -204 60 -316v-16h-128q-31 32 -48 32q-9 0 -20 -32h-124l-20 -4l-8 12q44 126 44 212q0 219 72 276q69 72 192 72q112 97 140 156 q-40 208 -152 208h-8q-84 0 -244 -96l-4 4v4l8 52q0 105 -56 220zM312 232q66 0 132 -96l8 -32q0 -11 -112 -124q0 -40 -8 -40h-8q-160 94 -160 156q0 51 132 136h16z" />
<glyph unicode="A" d="M1068 1722l4 -4q-44 -73 -44 -132q220 -933 404 -1488q28 -57 64 -96v-4l-428 4l-32 -4l-4 4q59 103 68 140q-84 339 -116 416l-12 4q-11 0 -92 -52h-4q-15 0 -140 60l-40 8q-44 -66 -112 -464v-32q5 -45 32 -80q-20 -8 -72 -8l-392 -4l-52 4v4q118 111 160 240 q120 317 120 400q-21 16 -44 16l-156 -20v4q45 61 180 120q80 29 80 56q148 529 148 608q-17 108 -40 108v12q396 129 520 180zM756 838q82 -16 128 -16h24l8 8q0 123 -80 320h-4q-30 0 -76 -304v-8z" />
<glyph unicode="B" horiz-adv-x="1440" d="M124 1718q91 0 240 -140l36 -20l264 136l40 4h36q162 0 328 -216q71 -116 104 -244q-83 -90 -236 -204l-48 -36q1 -6 84 -36q102 -50 216 -196q124 -187 152 -316v-8q-44 -62 -276 -260q-217 -180 -440 -180q-63 -12 -292 -12h-92l-120 4l-12 20q0 24 68 216 q24 144 24 272q0 972 -24 972q-76 209 -76 240l4 4h20zM536 1442q64 -40 64 -48l4 -24l-8 -192q4 -44 16 -44q55 0 212 140l4 4v4q-40 124 -124 168q-41 20 -76 20h-8q-52 0 -84 -28zM488 706v-8q12 -15 108 -56l4 -28l-12 -240q4 -92 36 -92q67 0 352 176l16 20v8 q0 75 -156 192q-97 56 -172 56h-48q-42 0 -128 -28z" />
<glyph unicode="C" horiz-adv-x="1652" d="M1024 1719h52q120 0 352 -44l56 -4l68 8v-4l-248 -416h-24l-60 96q-76 80 -156 80q-190 0 -352 -280q-80 -156 -80 -304v-48q0 -279 256 -464q136 -80 268 -80h20q185 0 372 132l4 -4v-4q-142 -246 -480 -360q-120 -32 -192 -32h-88q-230 0 -448 180q-158 138 -224 428 q-20 85 -20 168v12q0 417 324 716q275 224 600 224z" />
<glyph unicode="D" horiz-adv-x="1536" d="M524 1728q244 -51 552 -392q272 -344 356 -580l4 -4v-4q-79 -142 -340 -404q-386 -344 -756 -344h-60q-180 6 -180 28q88 55 88 124l8 276q-8 636 -44 636q-20 32 -20 52v12q384 430 384 564zM616 1284q-20 -81 -20 -500v-184q0 -368 24 -368h12q84 0 384 284 q156 160 156 232q0 23 -44 28h-12l-44 -4q-21 0 -184 276q-161 240 -272 240v-4z" />
<glyph unicode="E" horiz-adv-x="1220" d="M340 1708h4q64 -32 144 -32q600 -24 632 -32v-4q0 -19 -124 -188q-57 -85 -104 -208l-4 -4h-16q-57 0 -76 48q-95 92 -152 92h-16q-44 0 -44 -156l-4 -76q3 -140 20 -140h208l196 4l12 4l4 -12l-100 -200l-60 -148l-24 -4q-69 0 -80 48q-54 72 -128 72q-56 0 -56 -108 l-4 -88v-40q0 -168 36 -168l140 -4l352 8l4 -4v-4q-106 -174 -152 -264l-32 -116l-4 -4h-4q-70 12 -200 16l-528 -12q-64 0 -64 28v12q0 10 40 68q15 56 20 880l-4 300q0 50 -60 72l-12 12v8q27 137 228 336z" />
<glyph unicode="F" horiz-adv-x="1220" d="M348 1718q50 -40 348 -40q396 -17 424 -24v-8q0 -15 -128 -192q-62 -96 -100 -208l-12 -8h-4q-27 0 -164 128q-44 32 -72 32q-60 0 -60 -204v-28q3 -148 20 -148l120 -4l300 8v-8l-112 -228l-44 -120l-20 -4h-8q-70 0 -80 48q-56 72 -132 72q-52 0 -52 -100 q-8 0 -12 -176q0 -344 76 -500q0 -16 -204 -16h-128q-192 0 -192 20v8q0 18 52 80q16 324 24 764q0 476 -40 476l-48 28v8q17 124 232 340z" />
<glyph unicode="G" d="M1004 1718h24q130 0 360 -44l36 -4l68 12l4 -12l-240 -396h-8q-26 0 -56 76q-71 92 -160 92h-12q-171 0 -328 -260q-80 -156 -80 -304v-16q0 -381 216 -532q75 -32 136 -32q156 9 156 60q16 22 24 120q0 184 -124 296q-23 22 -104 44l-8 52l24 8h48l84 4l108 -4h60 l260 -4l4 -4v-4q-68 -83 -68 -156l4 -256v-40q0 -296 -316 -404q-90 -20 -140 -20h-68q-280 0 -556 232q-252 253 -252 596q0 440 380 740q248 160 524 160z" />
<glyph unicode="H" horiz-adv-x="1856" d="M1672 1726q16 -15 16 -128l-12 -972v-28q0 -435 40 -512l40 -68v-8q-4 -12 -24 -12h-460q-52 0 -52 12q98 86 116 136l-4 32l-4 560v176l-8 8h-4q-52 -85 -152 -148l-4 -4h-4l-4 4v4l12 60q0 97 -116 136l-56 8h-20q-82 0 -144 -40l-4 -24v-108l4 -684q0 -21 104 -116v-4 l-8 -8h-552l-8 8q104 47 104 280q12 243 12 472v68h-4q-34 -2 -240 -144q0 -28 -128 -28h-8v8q127 121 252 184l124 80l4 140v72q0 301 -140 396q-52 8 -52 16q0 9 244 68l304 96l4 -44l-16 -540l8 -56q109 52 184 76q29 12 80 12h28q104 0 212 -108h4l4 60v312 q0 118 -108 168v4q236 44 376 100z" />
<glyph unicode="I" horiz-adv-x="892" d="M696 1719l4 -12q-24 -79 -24 -532q0 -1012 32 -1012q27 -94 84 -152v-4l-8 -12l-128 -4h-336q-216 0 -216 20l-4 24v16l64 40q104 93 104 472v324q0 331 -56 552q-68 109 -68 124q233 76 552 156z" />
<glyph unicode="J" horiz-adv-x="1168" d="M1064 1729l4 -4v-8q-24 -107 -24 -436l-4 -500v-4l4 -560q-18 -138 -52 -168q-145 -154 -276 -232q-285 -188 -492 -264l-52 -12h-20q-39 0 -52 72v12q393 284 444 472q76 158 76 700l4 128q0 482 -124 632l-56 56q0 16 252 28q119 20 368 88z" />
<glyph unicode="K" horiz-adv-x="1588" d="M604 1721h12q16 0 16 -88l-12 -664v-12q0 -84 12 -84h12q63 51 100 132q208 432 208 524q0 39 -36 76l16 12q99 -16 196 -16h36q128 0 320 20l4 -4v-8q-173 -191 -296 -396q-176 -286 -236 -436q60 -245 376 -668q128 -132 128 -152q-51 -116 -96 -116q-144 41 -440 312 q-210 219 -284 372h-16l-12 -216q0 -219 120 -300v-4l-8 -8h-4l-512 -4l-104 4l-4 12q85 136 100 280q36 214 36 452q-19 644 -36 644q-3 53 -76 172q0 41 160 92q241 48 320 72z" />
<glyph unicode="L" horiz-adv-x="1388" d="M744 1708l4 -4v-4q-28 -173 -28 -300v-140l4 -816l12 -16l548 -4l4 -4v-16q-179 -217 -232 -416l-12 -8q-67 20 -236 20l-596 -12l-56 4v8q116 140 116 244l4 792q0 306 -108 376q-68 35 -68 76q0 33 88 44q375 89 556 176z" />
<glyph unicode="M" horiz-adv-x="2148" d="M2024 1714l4 -4v-4q-108 -166 -108 -404q-12 -190 -12 -408v-60q0 -446 96 -756q44 -62 44 -80l-4 -4l-168 -4h-444l-8 8v4q116 60 116 444v448q0 44 -12 44q-34 -12 -112 -124q-240 -354 -240 -476v-40l4 -40l-4 -4h-8q-220 75 -484 456q-48 59 -48 68h-12l-12 -208 q0 -228 56 -504q32 -56 32 -68l-4 -4h-576q-14 0 -20 44v4q0 22 64 68q60 71 60 268q20 209 20 504v12q0 468 -76 576l-60 60q0 8 68 12q339 63 496 128h4q102 -375 220 -580q65 -117 204 -264l24 -8q50 39 164 204q204 292 204 420q0 55 -64 104q22 15 196 40 q135 36 396 128h4z" />
<glyph unicode="N" horiz-adv-x="1584" d="M576 1724q24 0 24 -36v-76q0 -340 432 -772h12q23 0 36 596q0 117 -28 144l-56 56v16h4q69 0 416 72h40q28 -8 28 -120v-8l-24 -956v-204q0 -136 24 -400q-3 -36 -12 -36q-172 72 -576 428q-265 259 -304 340h-12q-8 -34 -8 -112q0 -612 40 -612l16 -36l-32 -8h-464 q-20 10 -20 32v8q52 47 52 76q12 251 16 816q0 576 -24 576l-56 60v4q0 42 84 48q253 52 392 104z" />
<glyph unicode="O" horiz-adv-x="1688" d="M700 1706q230 0 468 -240q208 -244 328 -544q92 -213 92 -236v-8q0 -35 -372 -372q-196 -199 -196 -304l4 -20l-12 -4q-212 0 -500 212q-156 149 -264 384q-148 258 -148 376q0 26 364 380q232 247 232 328l-8 44zM492 970q40 -139 168 -348q159 -211 284 -276h4 q20 3 20 24v60q208 198 208 232v8q-19 161 -240 464q-106 128 -160 128h-16q-268 -239 -268 -292z" />
<glyph unicode="P" horiz-adv-x="1544" d="M112 1728h16q80 0 296 -160l24 -8h12q207 152 396 152q288 0 500 -360q83 -154 88 -204q-10 -32 -148 -144q-364 -284 -496 -404l-108 56h-8q-24 -12 -28 -116v-56q0 -288 116 -472q-10 -12 -108 -12h-540l-12 12v8q88 193 88 324q8 70 12 308q-6 872 -28 872 q-26 107 -84 172v20zM568 1396q0 -26 76 -72l8 -24v-8l-8 -312q0 -112 28 -112q58 0 272 232l4 16v8q0 116 -152 272q-64 36 -92 36h-32q-41 0 -104 -36z" />
<glyph unicode="Q" horiz-adv-x="1744" d="M700 1727q205 0 504 -292q272 -317 364 -536q40 -76 40 -92q0 -18 -276 -356l-264 -312v-4q248 -48 432 -112q142 -57 144 -64q0 -5 -120 -40q-102 -37 -224 -120h-4q-487 252 -908 252h-56v4q0 25 240 72q40 3 40 12v4q-240 220 -328 348q-184 245 -184 308 q77 167 464 652q112 141 112 176v28l-32 68l4 4h52zM416 883v-4q25 0 68 -88q69 -121 280 -328q132 -103 180 -104q40 0 80 68q300 352 300 364l4 4v4q-37 16 -172 204q-278 344 -376 344q-55 0 -276 -320q-88 -132 -88 -144z" />
<glyph unicode="R" horiz-adv-x="1636" d="M180 1728q59 0 244 -148l28 -4q15 0 180 92q102 40 184 40h44q248 0 444 -268q104 -178 104 -236q-27 -47 -172 -156q-194 -139 -208 -204v-12q50 -276 300 -688q89 -119 208 -236q-22 -80 -68 -80q-156 48 -476 336q-233 248 -308 408h-4l-12 -4q-12 -118 -12 -208v-44 q0 -219 128 -304v-4l-8 -12l-28 4l-256 -4h-384l-8 8l72 140q76 287 76 680q-22 724 -52 724q0 23 -68 128v12q23 40 52 40zM592 1420v-4l76 -68l4 -24l-16 -324q4 -56 20 -56h4q50 0 252 208l16 20v16q0 104 -136 240q-65 36 -108 36q-58 0 -112 -44z" />
<glyph unicode="S" horiz-adv-x="1476" d="M920 1716h24q218 0 412 -88l4 -4v-4q-52 -27 -108 -84q-76 -100 -92 -100h-4q-141 124 -260 124q-132 0 -284 -140v-12q0 -23 184 -220q549 -584 580 -648q-150 -366 -416 -500q-125 -52 -236 -52h-28q-246 0 -544 224q-52 36 -52 60v4q59 69 224 324l16 12h24 q36 0 36 -52l-4 -32q25 -163 96 -252q110 -128 240 -128q142 0 260 140q0 47 -584 684q-244 281 -244 332v4q290 408 756 408z" />
<glyph unicode="T" horiz-adv-x="1536" d="M384 1724h8q16 0 128 -60q111 -44 352 -44q392 8 540 8h16q8 0 8 -12q-115 -195 -208 -396l-12 -8l-124 40q-63 12 -104 12h-36q-36 0 -36 -40q-4 -139 -4 -220v-188q0 -504 52 -656q72 -132 72 -148l-4 -8q-86 -4 -128 -4h-536q-36 0 -36 44v20q0 5 88 72q56 71 56 132 q4 527 4 836v84q1 8 56 40q12 19 12 24q0 14 -36 20q-98 -4 -156 -4h-232q-21 0 -24 12v12q43 59 272 424z" />
<glyph unicode="U" d="M1420 1727q12 0 12 -16q-16 -337 -20 -604q0 -563 84 -1100l-12 -8h-8q-136 34 -308 168l-40 40q-20 0 -88 -84q-173 -200 -196 -200l-24 -4q-191 0 -536 348q-31 41 -96 92q-12 44 -12 256l8 736q0 106 -84 156v4q0 8 120 32q209 67 388 148h4q16 -6 16 -28 q-56 -512 -56 -668q0 -492 272 -716h4q97 33 236 240v4l-8 216l4 360q-8 440 -48 440l-44 48v4q10 15 256 68q86 28 176 68z" />
<glyph unicode="V" horiz-adv-x="1564" d="M1444 1732l4 -4v-4q-20 -88 -28 -168l-4 -844v-28q0 -421 48 -652v-20q-4 -12 -24 -12q-163 0 -484 144q-427 216 -640 780q-121 387 -124 520q0 32 -92 112q8 11 224 52q141 40 288 108l4 -12q0 -896 428 -1152v4q16 37 16 220v20q0 322 -12 744q0 9 -68 80q0 19 192 36 q156 36 272 76z" />
<glyph unicode="W" horiz-adv-x="2356" d="M2252 1732l4 -8v-8q-32 -80 -52 -500q-52 -572 -52 -872q0 -220 24 -316q-5 -28 -16 -28q-85 0 -300 84q-241 80 -380 172q-124 108 -144 108h-12q-18 0 -76 -140q-125 -220 -172 -220l-16 -4q-132 25 -448 280q-238 236 -276 348q-65 102 -120 288q-64 250 -64 548 q-15 35 -52 80v8q0 18 200 36q265 47 380 100q0 4 16 4l4 -8q-72 -274 -72 -472v-72q0 -378 244 -580q39 -32 56 -32q38 0 48 480v188q0 296 -44 296q0 5 -36 48v4q17 19 288 80l276 84l4 -8q-56 -261 -56 -444q0 -484 336 -688h4q24 64 24 668v252q-84 100 -84 108 q57 23 344 76q6 0 220 60z" />
<glyph unicode="X" horiz-adv-x="1812" d="M164 1718h84l316 -16l104 4q24 -9 24 -16v-20l-28 -128q0 -96 232 -400h12q212 300 212 428q0 28 -36 128q0 11 20 20q143 -24 316 -24h160l128 4l4 -4v-32q0 -12 -68 -96l-300 -404q-116 -179 -216 -312l-4 -16q0 -31 232 -364q199 -299 256 -356q87 -61 96 -76v-4 q0 -23 -16 -40l-288 -4h-240q-10 0 -16 32v4q68 36 76 60l4 16q0 57 -280 432q-24 46 -40 48q-39 -16 -124 -136q-152 -210 -152 -328q0 -45 36 -112l-4 -4h-544q-20 9 -20 40v20q16 17 112 72q47 43 252 348q240 326 240 360q0 11 -220 316q-133 197 -248 404 q-52 80 -116 116l-4 16q0 24 48 24z" />
<glyph unicode="Y" horiz-adv-x="1808" d="M204 1722l356 -16h40l44 4q25 0 36 -20v-8q-28 -96 -28 -120q0 -73 232 -336h12q30 25 164 220q52 101 52 148l-36 104v8q0 9 20 12q139 -20 312 -20h216l80 4l4 -4v-32l-204 -236q-146 -154 -344 -412q-80 -116 -80 -500v-48q0 -111 40 -292q120 -159 120 -176l-8 -8 l-380 -4h-188l-120 4q-20 17 -20 56v4l96 80q56 53 56 256q32 183 32 304v4l-12 140v16q52 50 52 72q0 15 -56 36q0 14 -240 300q-82 102 -252 348q-52 56 -96 72l-4 4v16q0 17 104 20z" />
<glyph unicode="Z" horiz-adv-x="1876" d="M1068 1711q91 -4 212 -4h436q60 0 60 -16v-4q0 -20 -88 -100q-186 -230 -360 -504q-8 -8 -8 -24q12 0 12 -4l28 4h148q17 0 32 -8q-92 -166 -160 -328h-12q-59 28 -172 28h-28q-14 0 -36 4q-12 0 -80 -124q-152 -238 -152 -252q717 -8 816 -8q16 -6 16 -12 q-166 -294 -168 -372l-8 -4q-85 16 -248 16h-876q-82 0 -224 4q-24 8 -24 16v16q330 352 492 608q5 0 84 120l-8 4h-204q-6 0 -12 12v8q42 58 168 268q13 12 20 12q91 -20 180 -20h16q41 0 76 84q16 16 168 272v12q-40 -4 -60 -4h-208q-119 0 -320 -4q-64 0 -164 -80 q-41 -69 -72 -72h-4q-13 6 -76 140q-160 263 -160 276q0 27 968 40z" />
<glyph unicode="\" horiz-adv-x="1012" d="M112 1458h32l168 4l124 -4q60 -8 60 -24v-12q-40 -89 -40 -124q0 -120 148 -492q168 -498 244 -696l64 -84v-16l-20 -20h-176l-240 4l-4 4v32l44 20q32 35 32 84q0 71 -148 504l-192 512q-54 242 -108 280v16z" />
<glyph unicode="a" horiz-adv-x="1176" d="M776 1198v-4q-24 -54 -24 -72v-12q0 -30 164 -664q109 -394 152 -436l8 -12v-4l-300 4l-20 -4l44 100q-60 247 -80 296h-4q-17 0 -64 -36h-4l-124 48q-29 0 -84 -328v-20q0 -16 20 -60h-4l-204 -4h-152v8q51 19 128 200q64 174 64 248l-24 8l-108 -12v4q6 27 176 108 q104 369 104 444q0 38 -24 72v8zM612 802q-48 -101 -48 -220l104 -12l4 12q0 79 -56 220h-4z" />
<glyph unicode="b" horiz-adv-x="1068" d="M108 1198h16q52 0 168 -104l16 -8q184 100 212 100h12q184 0 296 -260q20 -44 20 -64q-37 -43 -200 -172q142 -45 228 -180q66 -107 92 -204q-105 -115 -268 -236q-98 -80 -400 -80h-148q-48 0 -48 16l52 180q12 70 12 172v228q0 476 -28 476l-40 124v4zM404 1010v-4 l44 -32v-28l-4 -120l8 -36q49 0 156 104q-48 132 -144 132zM368 490v-8q80 -32 80 -48l-8 -180q0 -60 24 -60q145 41 260 140q-17 78 -124 144q-59 32 -112 32h-24q-37 0 -96 -20z" />
<glyph unicode="c" horiz-adv-x="1216" d="M752 1204h44q57 0 260 -32h12l48 4v-4l-172 -288h-16l-52 76q-43 44 -100 44q-164 0 -280 -268q-24 -94 -24 -156q0 -254 240 -372q73 -24 112 -24h44q115 0 240 88h8v-4q-191 -276 -508 -276q-265 0 -428 244q-80 166 -80 316q0 278 228 496q190 156 424 156z" />
<glyph unicode="d" horiz-adv-x="1132" d="M396 1198q121 -17 320 -204q260 -296 316 -480q-46 -100 -272 -316q-258 -208 -484 -208h-60q-116 3 -116 20q60 35 60 92l4 96v164q0 352 -36 384l-8 24q0 11 100 120q176 219 176 308zM444 482q0 -332 20 -332h4q70 0 308 240q72 79 72 124q0 14 -32 20l-44 -4 l-164 252q-86 108 -144 108q-18 0 -20 -408z" />
<glyph unicode="e" horiz-adv-x="912" d="M264 1194h8q47 -28 316 -28q224 -10 224 -20v-4q-124 -178 -124 -192q-33 -79 -40 -80h-16q-31 0 -60 48q-58 48 -92 48h-20q-20 0 -24 -132v-48q0 -80 24 -80h92l188 4l4 -4v-4q-86 -153 -112 -240l-16 -4q-49 0 -60 36q-38 48 -80 48h-8q-40 0 -40 -92v-108 q0 -80 24 -80l56 -4h40l248 4v-4q0 -10 -84 -148q-28 -51 -44 -120h-4l-100 8h-28l-360 -8l-56 4q-12 15 -12 28q36 35 36 112l8 616l-4 156q0 13 -48 44v8q0 70 164 236z" />
<glyph unicode="f" horiz-adv-x="912" d="M276 1198q35 -32 364 -32q0 -5 168 -8l4 -4v-4q0 -12 -100 -156q-32 -52 -64 -132h-4q-19 0 -132 100q-20 12 -40 12q-36 0 -36 -136v-52l8 -76l56 -4l236 4l4 4l4 -12q-112 -210 -112 -240l-16 -4q-49 0 -60 36q-37 48 -80 48h-20q-36 0 -36 -196q0 -222 52 -344 q0 -12 -92 -12h-180q-96 0 -96 16q11 26 40 60l16 540q0 328 -28 328q-30 11 -32 20v4q0 74 164 240h12z" />
<glyph unicode="g" horiz-adv-x="1172" d="M728 1198h36q54 0 260 -32l48 4v-4l-164 -276h-16q-9 4 -36 56q-45 60 -112 60q-152 0 -264 -252q-24 -77 -24 -140v-20q0 -271 160 -372q46 -16 80 -16h4q120 0 120 72l4 36v28q0 170 -136 220q-16 0 -24 16v24l8 8l84 4l224 -4h28q64 0 64 -12q-48 -49 -48 -112l4 -132 v-60q0 -229 -236 -292q-30 -12 -88 -12h-52q-220 0 -420 208q-132 164 -132 344v44q0 278 244 484q170 128 384 128z" />
<glyph unicode="h" horiz-adv-x="1352" d="M1192 1204q12 0 12 -48l-8 -732q0 -336 40 -388q10 0 16 -32l-4 -4h-360l-8 8q73 66 80 96l-4 48v484l-8 8h-4q-35 -62 -112 -104v4l8 44q0 86 -128 100h-4q-104 -11 -104 -36l-4 -44l4 -512q0 -23 72 -88l-8 -8h-384v4q68 43 68 168l12 396l-4 12q-65 -29 -188 -116 l-68 -8l-4 4v4q83 83 260 184v8l4 136q-17 288 -132 288v8q268 69 376 112l4 -4v-40l-8 -364v-32q0 -8 12 -8q108 60 172 60h24q74 0 148 -76h4v4l4 172q0 166 -48 184l-28 20q194 40 300 88z" />
<glyph unicode="i" horiz-adv-x="696" d="M528 1199l4 -4v-4q-16 -59 -16 -188v-388q0 -532 32 -532q0 -23 48 -80q0 -12 -44 -12h-352q-96 0 -96 16l-4 24q116 59 116 232l8 344q0 375 -88 472v8q23 19 392 112z" />
<glyph unicode="j" horiz-adv-x="860" d="M756 1199l4 -12q-16 -16 -20 -636l4 -380q0 -125 -128 -212q-286 -214 -468 -260h-12q-36 0 -36 48v8q140 101 248 224q88 142 88 240q20 81 20 452q0 356 -120 448v8q181 0 420 72z" />
<glyph unicode="k" horiz-adv-x="1172" d="M448 1203h12q12 0 12 -56l-8 -492v-8l4 -40q73 0 228 448v20q0 18 -24 48l8 8q65 -12 140 -12h24l224 12l4 -4v-4q-135 -149 -248 -344q-102 -172 -124 -240q58 -206 284 -492l68 -72v-4q-32 -88 -64 -88q-96 21 -328 236q-142 156 -184 248h-4q-7 0 -16 -144 q0 -160 84 -220v-8l-388 -4h-44l-8 8v8q92 132 92 464v76q0 443 -56 508l-20 32q0 53 312 108q0 7 20 8z" />
<glyph unicode="l" horiz-adv-x="1032" d="M548 1188l4 -4v-4q-20 -123 -20 -196v-244l4 -436l4 -12h208l180 -4l4 -4v-4q-128 -160 -168 -300h-4q-58 12 -112 12l-508 -4l-4 4v4q84 80 84 196v568q0 186 -96 236q-7 0 -24 28v20q18 15 288 80z" />
<glyph unicode="m" horiz-adv-x="1560" d="M1444 1194q-72 -148 -72 -240l-8 -300l-4 -56q0 -333 76 -560q22 -21 24 -40q-16 -8 -44 -8h-392v8q68 21 80 260v384l-8 8h-4q-94 -95 -180 -260q-60 -84 -60 -160v-48q0 -8 -12 -8q-99 32 -248 204l-124 164h-4l-8 -144q21 -388 60 -388l4 -16l-4 -4h-60l-40 4l-56 -4 h-244q-16 7 -16 28v16q84 62 84 180q16 256 16 412q0 320 -56 400l-40 40q304 54 396 100q76 -273 160 -416q64 -108 148 -180h8q10 0 108 132q148 213 148 304q0 36 -44 72q8 8 160 32z" />
<glyph unicode="n" horiz-adv-x="1168" d="M436 1204q20 0 20 -164q30 -168 284 -444q10 -12 20 -12l8 12q16 234 16 368v72q0 64 -60 112l8 8h8q43 0 284 48h24q20 0 20 -76v-12l-16 -672v-176l16 -260l-8 -8q-143 55 -492 384l-128 152l-8 -8v-172q0 -314 32 -344l4 -4v-4l-4 -4h-344q-12 4 -12 24v4l36 36 l12 580l-4 276q0 139 -36 164q-16 0 -16 12v12q0 19 124 36z" />
<glyph unicode="o" horiz-adv-x="1240" d="M524 1194q215 0 424 -296q123 -213 192 -412v-8q0 -31 -224 -228q-176 -164 -176 -264h-8q-134 0 -336 140q-107 101 -160 212q-132 230 -136 320v4q0 30 240 252l88 100q80 96 88 144l-4 32zM376 678q36 -160 208 -352l96 -80h24l4 24l-4 28l120 120l28 40v8 q-2 104 -180 344q-69 76 -104 76q-20 0 -192 -188v-20z" />
<glyph unicode="p" horiz-adv-x="1140" d="M108 1208h16q49 0 208 -116h20q142 104 264 104h16q252 0 408 -388q-36 -59 -172 -160q-186 -142 -280 -228l-68 36l-16 4q-16 -28 -16 -72v-60q0 -196 80 -316q-4 -12 -24 -12h-428l-8 8l44 120q24 108 24 288q0 680 -28 680q0 24 -48 88v16zM424 968q60 -44 60 -56 l-4 -252q4 -52 16 -52q72 18 196 168v12q-32 131 -104 184q-44 32 -84 32q-48 0 -80 -36z" />
<glyph unicode="q" horiz-adv-x="1280" d="M480 1202h36q228 0 520 -412q70 -113 120 -232v-8q-170 -214 -380 -460q233 -48 348 -100q56 -16 56 -28q-110 -24 -244 -108q-338 176 -644 176h-32v8q57 24 200 52v4q-180 158 -272 296q-88 128 -88 156v16q81 145 392 536l12 48zM320 618v-4q24 -20 72 -104 q207 -264 300 -264q28 0 72 72q164 184 196 232v4q-23 5 -120 140q-197 244 -268 244q-51 -29 -152 -168z" />
<glyph unicode="r" horiz-adv-x="1208" d="M160 1205q55 -12 172 -104l12 -4q20 4 112 56q83 40 164 40q239 0 372 -276q16 -26 28 -80q-21 -32 -212 -180q-56 -54 -56 -72q42 -227 228 -512l128 -148q-14 -52 -48 -52q-329 155 -552 520h-8l-8 -156v-16q0 -157 88 -220v-8l-408 -4q-48 0 -72 8q80 134 80 244 q24 106 24 316q0 480 -52 564l-32 52q15 32 40 32zM448 989v-4q56 -45 56 -64l-12 -228q2 -36 12 -36h8q68 27 184 156v8q0 107 -128 192l-28 4h-28q-31 0 -64 -28z" />
<glyph unicode="s" horiz-adv-x="1092" d="M676 1207q165 0 300 -64l4 -4v-4q-31 0 -132 -124h-12q-94 84 -180 84q-101 0 -200 -100q0 -27 236 -272q300 -321 300 -340q-167 -388 -468 -388q-196 0 -424 188v16l164 236h12q32 0 32 -32v-24q0 -141 136 -244q49 -24 92 -24h12q93 0 176 96q0 28 -456 532 q-124 146 -124 176v4q204 288 532 288z" />
<glyph unicode="t" horiz-adv-x="1136" d="M304 1202q117 -56 128 -56q82 -16 172 -16q105 0 432 4v-12q-95 -162 -148 -280h-8q-85 36 -156 36h-28q-21 0 -24 -20q-4 -169 -4 -224q0 -495 56 -568q9 0 32 -64q0 -8 -8 -8q-105 0 -296 -4q-105 4 -176 4q-11 13 -16 32q0 11 72 72q32 40 32 96q0 118 4 584 q0 5 -4 40q0 9 44 40q4 7 4 16q0 8 -8 8h-292q-6 0 -12 12v4l196 304h8z" />
<glyph unicode="u" horiz-adv-x="1176" d="M1024 1207l8 -8l-12 -372v-104q0 -354 56 -720l-4 -4h-8q-101 18 -252 148q-175 -204 -196 -204h-8q-160 0 -452 316l-4 116l4 604q0 25 -56 80q173 44 356 124q12 0 12 -16q-32 -304 -40 -472q0 -341 192 -500h12q91 68 144 148l12 20l-4 108v320q0 296 -44 296l-16 20 v8q1 7 196 52z" />
<glyph unicode="v" horiz-adv-x="1152" d="M1040 1208v-4q-20 -87 -20 -184v-76l-4 -408q0 -323 36 -508v-20l-8 -8h-4q-153 0 -400 132q-283 172 -416 592q-32 103 -68 308l-56 56q0 9 144 32q119 36 212 80l4 -4v-4q0 -620 292 -804h8q8 34 8 88v140l-4 456q-7 19 -48 56v12q203 28 308 64z" />
<glyph unicode="w" horiz-adv-x="1708" d="M1608 1208v-8q-23 -70 -44 -472q-28 -264 -28 -484v-20q0 -117 16 -216l-12 -8h-12q-64 0 -380 128q-76 40 -172 124q-4 0 -12 4q-22 0 -64 -108q-85 -148 -124 -148h-16q-404 186 -552 552q-72 202 -72 472q-12 25 -36 56v12q256 32 368 72q0 8 48 20l4 -8 q-52 -184 -52 -356q0 -322 204 -452h4q29 0 36 312v180q0 184 -32 184q0 5 -24 36q51 20 316 88q62 24 80 24h4q-40 -172 -40 -304v-16q0 -337 236 -476v4q16 39 16 260v316q0 22 4 56q-10 21 -60 80v4q45 16 304 68q73 24 92 24z" />
<glyph unicode="x" horiz-adv-x="1328" d="M124 1198h40l20 4l28 -4l208 -12l84 4l12 -16q-20 -78 -20 -104q0 -66 164 -276h4q142 199 152 300l-28 88l12 16q103 -16 220 -16h164l40 4l4 -4v-28q-225 -297 -388 -536q-24 -20 -24 -40q0 -23 328 -492q8 0 80 -64v-16l-16 -16h-364q-12 4 -12 24q56 24 56 52v8 q0 30 -216 328h-12q-136 -144 -176 -260l-12 -68q4 -39 24 -68l-8 -8h-376q-12 4 -12 24v16l96 68q299 419 324 468v12q0 14 -132 192q-108 159 -212 340l-64 56v12z" />
<glyph unicode="y" horiz-adv-x="1324" d="M108 1198h44l20 4l28 -4l220 -8h72l12 -12v-4l-20 -80q0 -54 160 -236v-4h12q152 184 152 256l-24 72v8l8 8q96 -12 264 -16l164 4l4 -4v-20q-341 -382 -400 -484q-40 -89 -40 -344q19 -236 44 -236q68 -84 68 -100q-20 -8 -92 -8h-388q-20 10 -20 32v12q100 77 100 128 l28 312v12l-8 108q36 35 36 52q0 10 -36 20l-192 240l-176 240l-48 32v12z" />
<glyph unicode="z" horiz-adv-x="1372" d="M852 1195q369 -4 404 -4q16 -6 16 -12v-8q-161 -170 -320 -424v-8h152v-4q-99 -211 -112 -228q0 -4 -8 -4q-31 20 -104 20h-40l-20 4l-160 -256v-8q298 -4 468 -4h40q72 0 72 -12v-4q-93 -153 -120 -260h-4q-36 12 -88 12h-84q-52 0 -52 4q-44 -4 -76 -4h-364 q-99 0 -276 4q-18 8 -20 16v4q279 301 404 516h-148q-8 0 -8 8v4q122 196 128 196h4q75 -12 88 -12h52q25 0 72 92q8 8 96 156v8h-4q-61 0 -400 -4q-80 0 -160 -104q-7 -4 -16 -4q-72 136 -164 284v8q1 8 8 8q345 20 744 20z" />
<glyph unicode="&#xa1;" horiz-adv-x="544" d="M240 1454h8q156 -89 156 -160q-2 -41 -128 -124q-7 -4 -16 -4q-72 0 -136 108q0 12 -4 12q0 13 108 128q0 40 12 40zM392 1102q1 -8 8 -8q-12 -50 -12 -276q0 -180 4 -616q0 -123 52 -200v-4q-30 -8 -56 -8h-172q-116 0 -116 24v8q43 43 56 68q28 75 28 264v236 q0 324 -60 404q0 27 96 52l20 -4h8q45 0 92 48q20 12 52 12z" />
<glyph unicode="&#xa2;" horiz-adv-x="1248" d="M664 1354h32l320 -16h16q6 0 12 -12v-4q0 -12 -88 -132q0 -16 144 -36h40q8 -1 8 -8l-172 -284h-4l-84 80q-9 15 -32 28h-4q-14 -16 -68 -216q-140 -400 -172 -508v-12q0 -22 144 -48q56 -4 72 -4q148 0 276 88h4v-4q-185 -272 -528 -272v-4q5 -43 40 -84v-8 q-28 -8 -48 -8q-288 8 -336 8h-48q-8 0 -12 24q0 9 64 80q40 98 40 104q0 7 -84 104q-96 166 -96 316v36q0 298 268 516q86 64 240 112q4 0 4 4v12q0 52 -56 116v12q0 20 108 20zM364 598v-48q0 -49 32 -128h8q11 0 84 240q72 245 72 260v8h-8q-188 -155 -188 -332z" />
<glyph unicode="&#xa3;" horiz-adv-x="1580" d="M772 2016h72q235 0 528 -184q56 -24 108 -32v-4q-285 -229 -376 -308h-4q-33 0 -40 88q-55 164 -208 164h-32q-232 0 -232 -336q16 -316 52 -316q72 0 184 64q19 0 176 -268q7 -1 28 -36v-4q-2 -12 -32 -12h-52q-77 0 -228 4q-4 -8 -4 -12q44 -175 44 -256 q0 -140 -84 -316q75 4 92 8q64 0 388 -64h52q27 0 240 40q13 0 24 -12q-85 -184 -236 -240q-115 -44 -192 -44h-12q-60 0 -248 88q-64 12 -100 12q-75 0 -212 -44q-88 72 -324 236q-8 13 -8 20q2 48 48 48h52q167 0 236 196q16 54 16 132v4q-8 176 -36 200h-20 q-106 0 -176 -36q-17 0 -64 112q-92 162 -92 172l8 4h128q46 0 140 -4v4q-112 335 -112 520v12q0 144 32 144q225 256 476 256z" />
<glyph unicode="&#xa5;" horiz-adv-x="1804" d="M196 1718q16 -4 28 -4q269 -12 316 -12h100q31 0 36 -16q0 -18 -24 -100v-36q0 -75 232 -328q26 0 108 124q107 140 116 224v28l-32 104q20 9 20 12q111 -20 300 -20h232q21 0 68 4l8 -12v-12q0 -15 -96 -120q-261 -286 -460 -552q-24 -54 -24 -60q8 -4 12 -4q64 0 304 4 q8 -4 12 -4v-8q-92 -124 -180 -272l-16 -8q-97 36 -172 36l-4 -20v-8q0 -40 -4 -96l12 -20q122 4 180 4h216q30 0 32 -12q-221 -287 -252 -308h-8q-112 52 -136 52h-12q-8 0 -8 -12q0 -97 104 -208l28 -44v-16q-8 0 -8 -4q-106 -4 -168 -4h-484q-48 0 -48 56q0 16 92 80 q52 69 52 128v36l-4 8q-94 -4 -140 -4h-164q-8 0 -8 8l188 280h4q80 -24 148 -32q12 13 12 68v64q0 3 -12 12q-41 -4 -64 -4q-100 0 -288 -4l-52 8v8q221 282 248 304h12q115 -48 132 -48h4q8 0 8 8q-22 41 -200 244q-127 155 -284 388q-58 65 -108 84v16q0 16 96 20z" />
<glyph unicode="&#xb0;" horiz-adv-x="712" d="M300 1540h4q200 0 272 -212l36 -96q0 -23 -136 -144q-56 -53 -56 -108h-16q-228 45 -228 100q-76 133 -76 176v8q0 23 104 116q96 103 96 136v24zM268 1276q27 -100 60 -100q53 -40 68 -40q1 13 40 80v4q0 83 -80 132l-12 4q-76 -44 -76 -80z" />
<glyph unicode="&#xbf;" horiz-adv-x="908" d="M576 1494h16q156 -94 156 -156q0 -39 -128 -128l-16 -4q-76 0 -136 108l-4 16q0 12 108 128q0 21 4 36zM480 1114h88q15 0 52 -32h16q21 32 32 32h116q20 -1 20 -8q-44 -120 -44 -216q0 -256 -120 -308q0 -20 -144 -36q-109 -96 -136 -148v-20q0 -88 88 -184 q31 -16 64 -16q90 0 240 92h12l-8 -48q0 -128 52 -212v-20q-56 0 -168 104q-7 4 -16 4h-4q-120 -100 -208 -100q-195 0 -312 360v12q0 14 340 348h8l44 -32h4q17 0 20 64v48q0 177 -56 308v4z" />
<glyph unicode="&#xc0;" d="M712 2094q74 -147 236 -260l168 -100q0 -8 -12 -8q-261 0 -624 172v16q10 0 220 180h12zM1068 1714q-40 -87 -40 -132q197 -848 404 -1488q28 -57 64 -96v-4l-408 4h-24l-28 -4l-4 4q64 115 64 132q-92 428 -124 428q-17 0 -88 -52h-8q-15 0 -140 60l-40 8 q-30 -41 -60 -196l-52 -260v-32q0 -47 32 -88l-4 -4l-108 -4h-404v4q93 85 148 208q132 346 132 432q-21 16 -44 16h-4l-152 -20v4q45 59 168 116q100 26 100 96q136 476 136 556v24q0 61 -36 104v8zM756 834q80 -16 128 -16h24l8 8q0 120 -80 320h-4q-46 -48 -76 -312z" />
<glyph unicode="&#xc1;" d="M884 2094q21 0 188 -152l44 -36q-25 -30 -304 -128q-194 -52 -328 -52l-4 4v4l164 96q143 104 212 220q20 44 28 44zM1068 1718l4 -4q-44 -78 -44 -128q216 -923 404 -1492q28 -57 64 -96v-4l-388 4h-44l-28 -4l-4 4q60 106 68 140q-77 309 -116 420h-4q-26 0 -96 -52h-8 q-14 0 -140 60l-40 8q-24 0 -112 -448v-36q0 -46 32 -92v-4l-140 -4h-376v4q175 139 280 640q-21 16 -44 16h-4q-40 0 -148 -20l-4 4q45 61 180 120q84 27 84 68q144 520 144 592q0 69 -40 116v8q419 136 520 180zM756 834q82 -16 140 -16h12l8 8v4q0 119 -80 316h-4 q-30 0 -76 -304v-8z" />
<glyph unicode="&#xc2;" horiz-adv-x="1584" d="M820 2098q48 -22 304 -228q128 -96 176 -96q9 0 16 4q36 -8 36 -24q-33 -110 -84 -148q0 33 -276 212q-140 103 -172 116q-4 -10 -164 -108q-93 -68 -236 -224l-64 136q-4 0 -4 4q132 146 296 248q158 108 172 108zM1060 1710q-40 -72 -40 -128q248 -1057 412 -1508 q25 -45 52 -76q-4 0 -4 -4q-218 4 -348 4h-104v4q64 110 64 136q-76 326 -112 412l-12 8h-4q-16 0 -92 -52q-14 0 -140 60q-16 8 -44 8q-52 -86 -112 -476v-8q0 -46 28 -88l-4 -8q-74 -4 -108 -4h-392v12q67 26 176 276q96 276 96 356q-17 16 -40 16h-8q-49 0 -144 -20l-4 8 q45 56 236 140q24 0 80 244q88 306 88 400q0 62 -36 108q10 16 420 144q81 36 96 36zM748 838q0 -15 156 -24l4 8v24q0 108 -76 296h-8q-34 0 -76 -304z" />
<glyph unicode="&#xc3;" horiz-adv-x="1584" d="M560 1950h44q65 0 392 -40h12q49 0 260 28l20 -4v-12q-145 -180 -424 -180h-16q-54 0 -256 60q-41 4 -64 4h-40q-57 0 -192 -24l-8 16q0 67 188 144q50 8 84 8zM1056 1710v-4q-36 -76 -36 -116q0 -52 248 -992q112 -398 172 -540q24 -36 44 -60q-4 0 -4 -4q-245 4 -368 4 h-84v4q64 110 64 136q-77 345 -120 420h-4q-20 0 -100 -52q-150 68 -160 68h-16q-35 0 -116 -464v-20q0 -46 28 -88l-4 -8q-94 -4 -140 -4h-360v12q59 40 108 128q164 371 164 500q-7 20 -32 20h-28q-43 0 -132 -20l-4 8q44 56 244 144q14 0 116 404q44 172 44 232v4 q0 62 -36 108v8zM748 834q66 -16 132 -16h28v24q0 125 -80 304h-4q-31 0 -76 -304v-8z" />
<glyph unicode="&#xc4;" d="M608 2006q108 -30 108 -100l-84 -92q0 -28 -8 -36q-128 74 -128 120v8q0 36 100 100h12zM996 2006q70 0 108 -96q0 -11 -84 -96l-4 -32h-12q-124 72 -124 124q0 29 100 100h16zM1068 1718l4 -4q-44 -81 -44 -128q212 -903 404 -1492q28 -57 64 -96v-4l-388 4h-44l-28 -4 v12q62 106 64 132q-77 320 -116 420h-4q-30 0 -92 -52h-8q-15 0 -152 64l-32 4q-44 -75 -112 -476q0 -42 32 -104h-4l-136 -4h-376v8q70 20 180 276q100 280 100 360q0 11 -40 16h-12l-144 -20l-4 4v4q40 51 256 152q152 534 152 628q0 71 -40 116v4q407 132 520 180z M828 1146q-68 -181 -68 -312q80 -16 140 -16h16v24q-33 247 -84 304h-4z" />
<glyph unicode="&#xc5;" horiz-adv-x="1584" d="M744 2138q203 0 280 -252l24 -56q0 -16 -156 -160l-4 -8v-8h4q157 56 164 56v-4q-36 -72 -36 -128q236 -1005 412 -1504q25 -45 52 -76q-4 0 -4 -4q-245 4 -368 4h-84v4q64 110 64 136q-76 332 -116 420h-8q-20 0 -100 -52q-12 0 -132 60q-26 8 -36 8h-8q-35 0 -116 -464 v-20q0 -46 28 -88l-4 -8q-94 -4 -140 -4h-360v12q59 40 108 128q164 370 164 500q-9 20 -40 20h-12q-54 0 -140 -20l-4 8q51 59 228 136q32 0 64 160q112 389 112 484v4q0 62 -36 108v8q179 58 180 64q-5 6 -84 36q-42 46 -100 184q0 10 -8 40q0 8 164 176q44 64 44 100h4z M700 1870q31 -104 72 -104q0 -4 44 -32h8q48 66 48 88q-32 132 -96 132q-76 -40 -76 -84zM748 834q94 -20 156 -20l4 8v20q0 124 -80 304h-4q-31 0 -76 -304v-8z" />
<glyph unicode="&#xc6;" horiz-adv-x="2020" d="M1152 1704q29 -36 296 -36q88 -8 448 -20q13 0 24 -12q0 -12 -136 -204q-54 -84 -92 -188l-20 -4q-56 0 -80 56q-91 81 -148 84h-12q-52 0 -52 -196v-28q4 -148 16 -148q85 -4 100 -4q140 0 312 8q12 -4 12 -8l-120 -244q-37 -108 -52 -108h-12q-67 0 -84 60 q-62 60 -112 60h-12q-56 0 -56 -108q-4 -29 -4 -108q0 -172 24 -188q94 -4 128 -4q220 0 372 8l4 -8q0 -10 -132 -228q-48 -117 -48 -152q-4 0 -12 -4q-87 16 -144 16q-98 0 -576 -12q-68 0 -68 40q44 65 44 88q7 0 12 440l-8 4q-11 0 -92 -52q-17 0 -148 64q-12 0 -28 4 q-41 0 -120 -472v-12q0 -45 28 -88q0 -12 -44 -12q-133 0 -420 -4l-40 4v4q102 75 212 384q60 197 60 248v4q-9 20 -44 20q-41 0 -148 -20v8q57 65 224 136q33 0 76 200q100 351 100 436v12q0 62 -36 108v4q373 96 608 172zM748 832q0 -11 160 -20v36q0 107 -76 292h-8 q-31 0 -76 -304v-4z" />
<glyph unicode="&#xc7;" horiz-adv-x="1644" d="M1032 1716h48q95 0 372 -48h28q22 0 64 8q0 -11 -216 -364q-23 -56 -40 -56q-19 0 -64 88q-62 88 -172 88q-187 0 -348 -284q-76 -151 -76 -312q0 -417 392 -560q73 -16 120 -16h56q160 0 348 128v-8q-149 -250 -492 -360q-113 -28 -188 -28q-11 0 -40 -96l8 -4 q75 20 104 20q157 0 228 -236v-4q-105 -145 -304 -204q-38 -8 -60 -8h-24q-108 0 -184 120h8q64 -36 108 -36h44q125 0 228 136v8q-115 124 -216 124h-20q-12 0 -56 -16q0 8 -8 8q16 39 44 192q-140 25 -252 84q-222 118 -328 420q-44 144 -44 256v56q0 303 240 600 q296 304 692 304z" />
<glyph unicode="&#xc8;" horiz-adv-x="1220" d="M696 2096q13 -7 68 -100q127 -142 196 -176l144 -84q0 -8 -12 -8q-269 0 -620 172l-4 4v4l220 188h8zM344 1712q48 -40 296 -40l476 -20l4 -4v-8q0 -17 -140 -212q-51 -87 -88 -184l-24 -4q-48 0 -80 60q-94 84 -156 84q-48 0 -48 -160l-4 -72q0 -140 24 -140l40 -4h100 q171 0 276 8v-12l-108 -216l-52 -132h-32q-68 0 -68 40q-58 76 -116 76h-24q-52 0 -52 -160v-80q0 -164 36 -164l136 -4l356 8l4 -12q-184 -288 -184 -376l-4 -4h-16q-44 12 -188 16l-528 -12q-68 0 -68 36v4q52 69 52 124l8 624v480q0 76 -56 92l-16 16v8q0 91 216 324z " />
<glyph unicode="&#xc9;" horiz-adv-x="1220" d="M880 2096l224 -188v-4q-155 -83 -332 -132q-151 -44 -300 -44l-4 4v4q135 71 240 152q126 124 160 204zM344 1712q48 -40 296 -40l472 -20l8 -12q0 -14 -148 -224q-53 -91 -76 -168l-28 -8q-48 0 -80 60q-96 84 -156 84q-48 0 -48 -144l-4 -72v-8q0 -105 12 -148l60 -4 h96q162 0 268 8l4 -4v-4q0 -13 -116 -232q-37 -112 -48 -120h-28q-63 0 -76 48q-54 68 -108 68h-24q-52 0 -52 -160v-80q0 -164 36 -164l132 -4l360 8l4 -4v-4q-106 -174 -152 -264l-32 -116l-4 -4h-16q-42 12 -192 16l-524 -12q-68 0 -68 36v4q48 66 48 108q12 198 12 680 v408q0 112 -36 112l-36 24v4q0 105 220 336z" />
<glyph unicode="&#xca;" horiz-adv-x="1216" d="M588 2196q402 -324 464 -324h4q9 0 16 4q36 -8 36 -24q-28 -106 -84 -148q0 32 -200 160q-157 117 -248 168q-10 -16 -132 -88q-83 -50 -268 -244l-64 144q135 143 292 244q157 108 184 108zM348 1704q40 -36 324 -36q0 -4 428 -20l16 -12q0 -8 -160 -240 q-32 -63 -68 -152l-24 -4q-42 0 -88 68q-82 70 -132 72h-28q-36 0 -36 -188v-88q0 -96 16 -96q50 0 124 -4l292 8l4 -8l-120 -244q-33 -104 -48 -104l-16 -4q-66 0 -88 68q-64 52 -104 52h-16q-56 0 -56 -108q0 -80 -4 -104q0 -192 32 -192q91 -4 136 -4q198 0 356 8l4 -8 q0 -7 -128 -224q-24 -45 -56 -156q-8 -4 -12 -4q-70 16 -192 16q-425 -12 -528 -12q-60 0 -60 32v4q0 11 40 72q16 121 16 720v388q0 128 -32 128q-40 24 -40 32q0 103 232 340q7 4 16 4z" />
<glyph unicode="&#xcb;" horiz-adv-x="1216" d="M420 1984q59 0 104 -84v-16q-80 -87 -80 -96q-4 -21 -4 -24q-132 61 -132 120q17 51 104 100h8zM804 1984q70 0 108 -92v-4q-11 -20 -84 -96q0 -28 -8 -28h-4q-113 65 -124 116q10 50 108 104h4zM348 1704q40 -36 264 -36q318 -16 480 -20q24 -4 24 -12q0 -16 -144 -220 q-37 -57 -80 -172l-20 -4q-57 0 -92 68q-93 72 -140 72h-8q-52 0 -52 -168v-68q0 -136 24 -136q54 -4 92 -4q177 0 316 8l4 -8v-4l-120 -244q-33 -100 -44 -100l-20 -4q-63 0 -80 56q-60 64 -112 64h-12q-56 0 -56 -108q-4 -19 -4 -92v-32q0 -156 24 -172q80 -4 120 -4 q245 0 380 8q4 -8 4 -12q-180 -281 -180 -372l-12 -8q-82 16 -196 16q-440 -12 -528 -12q-64 0 -64 40q48 60 48 124q12 379 12 884q-4 214 -4 256q0 23 -68 68q0 4 -4 4q19 107 196 304q41 40 52 40z" />
<glyph unicode="&#xcc;" horiz-adv-x="932" d="M420 2090h12q7 -1 48 -76q127 -165 276 -236q71 -37 76 -48l-4 -4v-4l-20 4h-4q-246 0 -604 172v4zM696 1714v-4q-24 -106 -24 -556q5 -976 28 -976q23 -99 88 -168v-4l-8 -12l-120 -4h-344q-212 0 -212 20l-4 16v28l60 36q104 76 104 468l4 320q-20 554 -76 588 q-48 80 -48 92q0 13 360 108q157 48 192 48z" />
<glyph unicode="&#xcd;" horiz-adv-x="940" d="M612 2094q42 -26 228 -192q-155 -83 -332 -132q-154 -44 -288 -44h-8l-8 8q179 86 320 232q82 128 88 128zM696 1718l4 -4v-8q-20 -94 -20 -308v-432q0 -773 28 -804q26 -91 84 -152v-12q-41 -8 -128 -8h-344q-212 0 -212 16q-8 16 -8 44q4 9 56 32q112 81 112 476l4 280 q0 367 -60 604q-64 99 -64 112v4q0 15 288 88q83 28 260 72z" />
<glyph unicode="&#xce;" horiz-adv-x="1196" d="M576 2130q403 -324 464 -324h16q4 0 4 4q36 -7 36 -28q-17 -85 -84 -144q0 33 -268 208q-1 5 -168 116h-12q-15 -15 -116 -72q-95 -56 -284 -256h-4q0 10 -60 144q156 166 344 276q101 76 132 76zM816 1710l4 -8q-22 0 -24 -508v-36q0 -988 28 -988q28 -104 84 -160v-12 q-52 -8 -140 -8h-324q-220 0 -220 20q-4 22 -4 36v4l76 52q88 84 88 444q4 102 4 340q0 529 -116 652q-3 16 -8 16q0 17 164 56q251 76 388 104v-4z" />
<glyph unicode="&#xcf;" horiz-adv-x="888" d="M288 1992q63 0 104 -92v-4q0 -8 -84 -100q0 -24 -12 -24q-112 62 -124 116q20 53 108 104h8zM676 1992q100 -36 100 -88q4 0 4 -4q0 -9 -84 -100q0 -28 -8 -28h-8q-120 71 -120 120q26 60 112 100h4zM696 1708l4 -8q-24 -53 -24 -528q0 -1008 28 -1008q28 -104 84 -160 v-12q-29 -8 -284 -12q-396 0 -396 24q-8 21 -8 32q0 12 68 48q96 89 96 424q4 24 4 316v84q0 483 -104 608q-16 24 -16 36q0 14 316 96q199 60 232 60z" />
<glyph unicode="&#xd1;" horiz-adv-x="1580" d="M560 2016h44q65 0 392 -40h12q49 0 260 28l20 -4v-12q-124 -136 -188 -136q-125 -44 -236 -44h-16q-54 0 -256 60q-41 4 -64 4h-40q-57 0 -192 -24q-3 16 -8 16q0 67 188 144q50 8 84 8zM1440 1728q40 0 40 -112v-60q-24 -726 -24 -1016q0 -259 24 -504q0 -32 -16 -32 q-189 81 -612 468q-183 181 -264 296h-4q-6 0 -12 -12v-244q0 -476 40 -476l8 -28v-4l-28 -4h-448q-32 0 -32 40q52 46 52 64q12 401 12 716v292q0 400 -24 400q0 14 -52 56v12q0 34 132 48q203 48 344 96q24 0 24 -80v-72q0 -285 420 -728q7 -4 16 -4h4q19 0 24 236 q12 117 12 300v100q0 108 -72 152l-8 12v12l20 4h16q50 0 400 72h8z" />
<glyph unicode="&#xd2;" horiz-adv-x="1692" d="M748 2088h12q6 0 72 -108q129 -141 248 -204q36 -12 88 -48l-4 -4v-4q-272 0 -636 176v4zM700 1712q148 0 352 -132q188 -163 268 -304q143 -232 272 -580v-24q-53 -72 -376 -368q-192 -190 -192 -300l4 -20l-12 -4q-199 0 -480 196q-158 142 -212 264q-204 341 -224 512 q0 25 368 384q228 243 228 320v4l-4 48l4 4h4zM496 972v-4q156 -433 440 -616h24l12 12v20l-4 44q0 8 168 168q44 54 44 72v4q-4 116 -204 416q-133 180 -204 180q-26 0 -260 -252q-16 -21 -16 -44z" />
<glyph unicode="&#xd3;" horiz-adv-x="1688" d="M936 2088q39 -24 228 -192q-144 -75 -312 -128q-178 -48 -312 -48h-12v8l120 68q92 48 208 180l72 108l4 4h4zM700 1708q156 0 360 -140q202 -184 284 -340q122 -208 244 -536v-24q-4 -19 -404 -396q-164 -166 -164 -276l4 -12l-4 -4h-16q-199 0 -480 200 q-166 161 -220 288q-181 300 -204 476v4q6 42 312 328q274 284 280 372v16l-4 40zM492 968q36 -138 184 -368q103 -140 252 -248l20 -4q20 3 20 12v28l-4 36l168 172q44 46 44 68v8q-25 188 -288 520q-76 72 -116 72q-23 0 -124 -104q-156 -149 -156 -188v-4z" />
<glyph unicode="&#xd4;" horiz-adv-x="1684" d="M812 2064q14 0 368 -276q79 -48 108 -48h12q4 0 4 4q36 -7 36 -24q-6 -65 -76 -148h-4q0 30 -232 180q-142 109 -216 144q-113 -69 -188 -124q-71 -50 -212 -204l-68 140q132 146 296 248q158 108 172 108zM696 1708q184 -18 348 -132q241 -217 320 -400 q117 -200 220 -492v-8q-1 -27 -364 -360q-204 -201 -204 -316v-4l4 -8l-12 -8q-206 0 -492 208q-146 130 -316 472q-94 188 -100 284q0 38 320 336q272 290 272 372v8l-4 40q8 0 8 8zM492 980v-20q67 -240 300 -504q127 -108 148 -108h12q6 0 16 16v4q0 22 -4 56l168 172 q44 48 44 72q-28 204 -304 540q-64 56 -100 56h-4q-36 0 -248 -232q-28 -34 -28 -52z" />
<glyph unicode="&#xd5;" horiz-adv-x="1684" d="M612 2004h44q65 0 392 -40h4q63 0 268 28l20 -4v-12q-145 -180 -424 -180h-16q-52 0 -256 60q-41 4 -64 4h-40q-57 0 -192 -24q-3 16 -8 16q0 67 188 144q50 8 84 8zM696 1708q161 0 372 -152q203 -194 236 -280q120 -168 276 -576q4 -6 4 -24q-3 -28 -364 -360 q-204 -201 -204 -316v-4l4 -8l-12 -8q-190 0 -468 188q-177 169 -204 248q-223 371 -236 528q4 38 232 252q360 357 360 452v24l-4 28q8 0 8 8zM492 980v-20q67 -240 300 -504q127 -108 148 -108h12q6 0 16 16v4q0 22 -4 56l168 172q44 48 44 72q-30 211 -308 544 q-62 52 -96 52h-4q-36 0 -248 -232q-28 -34 -28 -52z" />
<glyph unicode="&#xd6;" horiz-adv-x="1688" d="M656 2004q108 -36 108 -104q-84 -83 -84 -96q0 -26 -12 -28q-128 74 -128 124q0 38 108 104h8zM1044 2004q56 0 104 -84v-12q0 -19 -80 -96q-5 -36 -12 -36q-128 69 -128 132q42 66 108 96h8zM696 1708q199 0 424 -192q190 -202 260 -356q120 -224 208 -464v-28 q0 -17 -400 -392q-168 -176 -168 -272l4 -20l-4 -4h-24q-164 0 -436 172q-151 129 -196 216q-248 409 -264 580q0 30 400 416q117 137 156 196q40 68 40 96l-8 48l4 4h4zM496 972v-4q66 -212 192 -380q157 -200 260 -240h8q8 0 16 24l-4 44v16q196 186 212 228 q-22 166 -232 460q-115 144 -176 144q-36 -1 -272 -264z" />
<glyph unicode="&#xd8;" horiz-adv-x="1864" d="M752 1704q162 0 364 -144q114 -108 124 -108q44 75 44 108v36q-8 90 -8 96q0 9 20 12q103 -7 440 -288q18 -10 28 -20q0 -33 -80 -68q-49 -45 -160 -104q-80 -60 -80 -84q108 -216 200 -456q0 -35 -376 -376q-182 -189 -192 -276v-40q0 -6 -12 -12q-200 0 -484 200 q-12 20 -28 20q-36 -62 -36 -108v-36q8 -39 8 -44q-8 0 -8 -4q-49 0 -336 268q-10 0 -80 60q0 52 108 76q47 30 120 100v4q-102 203 -128 264q-44 114 -44 160v12q0 18 372 384q220 238 220 312v20l-4 24q4 12 8 12zM548 964q0 -36 76 -180h8q344 339 344 368 q-95 108 -136 108h-32q-260 -236 -260 -284v-12zM804 512q52 -72 168 -156q13 -8 24 -8h12q6 0 16 16v12q0 17 -4 44q0 12 140 144q72 73 72 104q-6 75 -68 184h-4q-49 -41 -356 -340z" />
<glyph unicode="&#xd9;" horiz-adv-x="1600" d="M716 2072q57 -109 156 -200q123 -98 248 -160v-4l-4 -4h-12q-266 0 -620 172v16q12 0 220 180h12zM1424 1728l12 -20q-20 -405 -20 -588q0 -594 84 -1116l-24 -8q-176 53 -348 212h-4q-40 -35 -248 -272l-36 -16h-24q-194 0 -552 368q0 9 -72 68q-8 11 -12 52l-4 252 l8 708q0 84 -84 140v4q278 72 464 160l44 20q24 -9 24 -32q-56 -448 -56 -656v-36q0 -472 276 -692h4q104 58 220 224l12 20l-8 228l4 372q-10 420 -52 420q-40 39 -40 56l320 84z" />
<glyph unicode="&#xda;" d="M888 2068q22 0 168 -136l60 -48v-4q-18 -26 -296 -124q-203 -56 -336 -56l-4 4v4q0 6 124 72q191 118 276 288h8zM1416 1724h4q12 0 12 -16q-16 -333 -20 -600q0 -563 84 -1100l-12 -8h-8q-158 41 -332 192l-20 20l-264 -284l-40 -8q-187 0 -532 344q-39 51 -96 92 q-16 0 -16 280l8 720q0 94 -72 140l-12 16q304 79 500 176h16q12 -4 12 -24q-56 -521 -56 -668q0 -499 276 -716h8q151 101 228 244l-8 212l4 352q-7 448 -48 448q-44 44 -44 56q15 12 276 72z" />
<glyph unicode="&#xdb;" horiz-adv-x="1592" d="M764 2212q15 0 316 -236q117 -88 164 -88q9 0 16 4q36 -9 36 -24q-28 -101 -84 -148q0 31 -184 148q-29 26 -260 180q-14 -14 -128 -80q-87 -51 -280 -252l-64 144q134 142 340 276q98 66 128 76zM1412 1720q16 -4 16 -28q-20 -382 -20 -588q0 -602 84 -1088 q0 -11 -20 -20q-155 45 -332 192q0 20 -28 20q-256 -288 -276 -288h-24q-194 0 -548 364q0 6 -80 76q-12 32 -12 212v16q0 323 8 732q0 133 -56 160l-24 24q15 11 180 52q114 40 324 128q20 -8 20 -24q-56 -466 -56 -680q0 -490 272 -704h8q94 34 232 236v4q-8 190 -8 220 q4 317 4 368q-9 428 -44 428l-44 48v8q0 8 252 64q97 32 172 68z" />
<glyph unicode="&#xdc;" d="M612 1992q62 0 104 -88v-8q0 -20 -84 -88v-28l-12 -12q-128 74 -128 124q13 45 104 100h16zM1000 1992q65 0 104 -92v-4q-6 -21 -84 -92q0 -36 -12 -36q-128 71 -128 128q33 60 104 96h16zM1416 1720h4q12 0 12 -16q-16 -322 -20 -600q0 -567 84 -1096q-4 -12 -24 -12 q-176 53 -348 212h-4l-260 -280l-12 -8h-36q-182 0 -524 340q-39 51 -96 92q-16 0 -16 256l8 728q0 112 -64 148l-20 24q276 71 472 164q0 9 36 12h8q9 0 12 -20q-56 -505 -56 -684q0 -483 276 -704q103 43 236 240l-8 220l4 368q-10 424 -44 424q-48 46 -48 64 q303 69 428 128z" />
<glyph unicode="&#xdf;" horiz-adv-x="1492" d="M128 1714q63 0 204 -140q36 -28 52 -28h20q132 100 256 100q297 0 520 -428q28 -75 28 -92q0 -10 -152 -160q-52 -62 -52 -100v-20q330 -395 384 -472q0 -4 4 -12q-115 -352 -316 -352q-98 0 -300 172q-79 23 -104 64v4q0 11 108 20q112 40 152 80q8 -1 8 -8v-48 q0 -104 20 -104h40q88 0 132 188v16q0 34 -92 124q-278 307 -296 376v8q61 108 156 220v4q-130 229 -328 288q-28 8 -68 8q-120 -17 -120 -52q84 -63 84 -96q0 -40 4 -96q-8 -307 -8 -532q0 -482 120 -640v-8q-15 -8 -32 -8h-416q-20 0 -24 16q96 195 96 428q0 188 4 216 q-8 884 -32 884q-24 75 -80 160q6 20 28 20z" />
<glyph unicode="&#xe0;" horiz-adv-x="1172" d="M512 1462h8l72 -100q109 -103 208 -144l4 -4v-4l-4 -4h-4q-167 0 -428 116l-8 12zM772 1198v-4q-28 -48 -28 -88q144 -623 288 -1056l40 -52v-4l-160 4h-164v4q44 75 44 100q-61 256 -84 288q-17 0 -64 -36h-8l-104 44l-20 4q-39 -75 -80 -336q0 -34 24 -68l-12 -4 l-312 -4l-32 4v4q98 91 172 352l16 88v4q-4 12 -24 12l-112 -12v4q15 33 168 100q14 0 88 308q16 52 28 136q-14 80 -28 80q6 10 344 120q0 7 20 8zM604 802q-48 -117 -48 -220l108 -12v12q0 91 -56 220h-4z" />
<glyph unicode="&#xe1;" horiz-adv-x="1176" d="M652 1462q7 0 156 -132q-123 -73 -312 -112q-61 -12 -124 -12l-8 8q199 92 280 248h8zM772 1194q-24 -62 -24 -88q152 -658 288 -1060l40 -52l-4 -4l-88 4h-224l-4 4h-4q44 75 44 100q-61 256 -84 288h-4l-68 -36q-103 48 -128 48v-4q-36 -81 -76 -332q2 -38 24 -68 l-4 -4h-356v8q53 20 124 196q68 184 68 248l-24 8h-12l-100 -12v4q12 31 176 108q108 378 108 440q0 41 -28 76v8zM608 798q-52 -140 -52 -216l100 -16l12 4v20q-24 171 -60 208z" />
<glyph unicode="&#xe2;" horiz-adv-x="1160" d="M600 1462h8q279 -220 316 -220q20 0 44 -8v-16q-5 -45 -56 -96q0 23 -276 208q-26 20 -40 20q-3 -10 -92 -60q-64 -42 -184 -168q-6 4 -48 100q200 183 328 240zM760 1190v-4q-20 -52 -20 -68v-12q148 -655 284 -1052l36 -56q-8 -4 -12 -4q-87 0 -272 4l-24 -4l-4 8 q40 68 40 92v4q-53 236 -80 288h-12q-14 0 -56 -32h-4q-16 0 -100 40q-7 4 -20 4h-8q-34 -41 -80 -328v-16q0 -11 16 -60l-40 -4h-304v12q69 42 140 256q44 125 44 176v4q0 9 -28 16l-104 -12q18 32 172 108q108 361 108 440q0 30 -24 84zM600 798q-47 -107 -52 -216 q21 -12 96 -12h16v28q0 70 -52 196z" />
<glyph unicode="&#xe3;" horiz-adv-x="1164" d="M436 1366q32 0 276 -28h48l156 16h4q8 -1 8 -8v-4q-102 -124 -300 -124q-23 0 -204 44h-64q-50 0 -120 -16q-8 10 -8 16q65 104 204 104zM768 1190q-24 -44 -24 -68v-16q164 -720 296 -1076q7 -1 24 -32q-4 0 -4 -4q-145 4 -220 4h-88q40 85 40 92q-44 223 -80 300h-8 q-9 0 -68 -36q-102 48 -124 48q-26 -38 -48 -156q-32 -142 -32 -184v-8q0 -11 16 -56v-4q-185 -4 -288 -4h-60v12q89 80 116 180q72 191 72 248v12q-4 12 -24 12h-12q-36 0 -92 -12l-4 8q39 36 176 104q104 372 104 444q0 30 -24 76q51 20 356 120v-4zM556 582 q44 -12 108 -12v20q0 100 -56 208h-4q-48 -90 -48 -216z" />
<glyph unicode="&#xe4;" horiz-adv-x="1172" d="M440 1402h12q49 0 76 -64v-4l-60 -68q0 -20 -8 -20q-88 48 -88 88q0 17 68 68zM712 1402h16q72 -24 72 -72q-64 -61 -64 -84h-4q-88 47 -88 84q0 26 68 72zM776 1198v-4q-28 -51 -28 -76v-4q0 -37 180 -720q96 -349 144 -396v-4l-248 4h-60l-4 -4h-4l-4 4v4q44 77 44 92 q-52 229 -80 296h-4q-17 0 -64 -36h-8l-104 44l-20 4q-39 -75 -80 -340l20 -68l-308 -4h-48v4q104 88 184 384l8 60v4q0 12 -36 12l-96 -12l-4 4v4q57 49 176 100q108 385 108 444q0 40 -28 76q6 10 344 120q0 7 20 8zM608 802q-48 -117 -48 -220l108 -12v12q0 91 -56 220 h-4z" />
<glyph unicode="&#xe5;" horiz-adv-x="1164" d="M556 1494q145 0 204 -216v-4q0 -2 -108 -108v-8h4l108 36h4v-4q-24 -44 -24 -68v-16q164 -715 292 -1068q3 0 28 -36l-4 -8q-138 4 -200 4h-108q40 85 40 92q-48 239 -80 300h-8q-12 0 -68 -36q-102 48 -124 48q-39 -64 -80 -328v-20q0 -11 16 -56v-4q-208 -4 -328 -4 h-20v12q89 80 116 180q72 192 72 248v12q-4 12 -24 12h-12q-36 0 -92 -12l-4 8q40 39 172 100q108 369 108 440q0 39 -24 84q124 43 124 48q-88 29 -88 72q-44 65 -44 116q144 133 144 184h8zM520 1310q0 -64 88 -96h4q28 54 28 60q0 52 -56 92h-8q-56 -21 -56 -56zM556 582 q44 -12 108 -12v20q0 100 -56 208h-4q-48 -90 -48 -216z" />
<glyph unicode="&#xe6;" horiz-adv-x="1468" d="M832 1194q49 -32 412 -32q85 -5 124 -12v-8q-131 -178 -160 -268q-14 -4 -16 -4q-23 0 -76 60q-50 40 -92 40q-32 0 -32 -132v-44q0 -88 20 -88h112q62 0 168 4l4 -8q-76 -148 -104 -224q0 -12 -20 -20q-43 0 -76 60q-36 24 -60 24h-24q-28 0 -28 -112v-84q0 -88 28 -88 h168q62 0 168 4l4 -8v-4q-120 -180 -128 -260q-59 8 -88 8h-36q-256 0 -376 -8q-56 5 -56 20v4q32 62 32 72q4 139 4 220v84h-4q-17 0 -64 -36q-105 48 -120 48h-4q-30 0 -84 -332q0 -41 20 -68q0 -8 -8 -8h-340v12q50 18 132 224q41 119 56 212l-16 12h-40q-31 0 -76 -12 l-4 8q51 45 176 104q104 368 104 444q0 30 -24 76q212 56 424 120zM548 586q13 -12 112 -12l4 8q0 84 -56 216h-8q-31 -41 -52 -212z" />
<glyph unicode="&#xe7;" horiz-adv-x="1212" d="M772 1204q47 0 288 -36h16l36 4v-4q-87 -139 -172 -284h-16q-59 120 -152 120q-169 0 -284 -284q-16 -66 -16 -116v-44q0 -238 240 -356q72 -24 140 -24q125 0 256 88v-4q-35 -69 -160 -168q-178 -104 -316 -104q-24 -55 -24 -64l8 -4q53 16 72 16q100 0 156 -160v-12 q-136 -148 -260 -148q-86 0 -132 84q45 -24 84 -24h16q91 0 168 96q0 30 -112 84q-15 8 -32 8h-24q-8 0 -40 -8q0 4 -4 4q28 96 28 136q-113 0 -276 132q-160 180 -160 412q0 350 316 564q171 96 356 96z" />
<glyph unicode="&#xe8;" horiz-adv-x="916" d="M516 1460h4q11 -5 52 -76q129 -134 232 -172v-8h-8q-185 0 -436 120v4zM268 1192h4q44 -24 160 -24l380 -16l4 -12q-108 -156 -128 -200q-31 -76 -40 -76h-8q-33 0 -80 64q-56 36 -96 36q-24 -21 -24 -104v-112q0 -44 20 -44l52 -4l220 4l12 4l4 -4v-4 q-105 -198 -112 -244l-16 -4q-49 0 -64 40q-36 44 -80 44h-8q-36 0 -36 -84l-4 -64q0 -132 24 -132l32 -4h152l160 4l4 -12q-128 -199 -128 -260l-4 -4h-4q-50 12 -124 12l-396 -8q-32 4 -32 16v8l32 64q8 162 8 424v376q0 53 -44 68q-8 0 -8 12q0 69 168 240z" />
<glyph unicode="&#xe9;" horiz-adv-x="916" d="M652 1462l152 -128q0 -17 -224 -96q-138 -32 -216 -32l-4 4v4q206 100 280 248h12zM272 1198q29 -28 204 -28q340 -12 340 -24q-97 -140 -132 -204q-27 -72 -32 -72h-16q-33 0 -60 48q-68 52 -104 52t-36 -160q3 -100 16 -100l40 -4h24l228 4v-4l-80 -164 q-28 -79 -36 -80l-4 -4h-4q-53 0 -68 48q-43 36 -76 36h-8q-40 0 -40 -112v-44q0 -124 24 -124l72 -4h32l240 4l4 -4v-4q-128 -199 -128 -260l-4 -4h-4l-88 8h-32q-226 0 -368 -8q-64 3 -64 20v16q36 22 36 148l4 316v404q0 31 -52 56v4q0 71 168 244h4z" />
<glyph unicode="&#xea;" horiz-adv-x="908" d="M436 1528h8q280 -224 328 -224h4q4 0 4 4q24 -8 24 -16q0 -33 -48 -100h-12q0 18 -140 112l-164 112h-4q-103 -63 -184 -128l-96 -100q-7 4 -48 100q200 183 328 240zM268 1188q47 -32 384 -32q0 -5 152 -8l4 -8q0 -9 -120 -188q-32 -88 -44 -88h-8q-31 0 -64 48 q-56 48 -92 48h-8q-36 0 -36 -120v-76q0 -64 12 -64h240l48 4q4 -8 4 -12q-77 -142 -112 -236q-7 -4 -16 -4q-45 0 -68 56q-46 28 -72 28h-4q-40 0 -40 -88v-120q0 -76 20 -76q46 0 84 -4q116 4 224 4h40v-4q-128 -202 -128 -264q-8 0 -8 -4q-21 8 -140 12q-240 -8 -380 -8 q-28 6 -28 16v16q36 21 36 180q4 291 4 520v92q0 120 -28 120q-21 10 -24 24q32 107 168 236z" />
<glyph unicode="&#xeb;" horiz-adv-x="908" d="M328 1384q39 0 68 -68q-60 -65 -60 -84q-65 23 -92 76v4q46 72 84 72zM592 1384q46 0 76 -64q-54 -62 -68 -88q-72 38 -84 76v12q58 64 76 64zM276 1184q0 -21 520 -36q8 -4 12 -4v-4q0 -10 -120 -188q-33 -92 -48 -92q-31 0 -68 52q-57 48 -96 48h-4q-36 0 -36 -120v-76 q0 -64 12 -64h248l40 4q4 -8 4 -12q-80 -149 -112 -236q-7 -4 -16 -4q-47 0 -64 52q-47 32 -80 32q-40 0 -40 -96v-112q0 -76 20 -76q60 0 100 -4q94 4 192 4h28q9 0 16 4q12 -4 12 -8q-128 -202 -128 -264q-8 0 -8 -4q-55 12 -132 12q-290 -8 -376 -8q-40 3 -40 16v16 q36 21 36 180q4 291 4 520v72q0 40 -4 120q-48 36 -48 44q22 91 164 232h12z" />
<glyph unicode="&#xec;" horiz-adv-x="712" d="M324 1462h8l84 -112q96 -89 196 -132v-12q-183 0 -436 120l-4 4v4zM516 1202l4 -4v-4q-16 -56 -16 -232v-224q0 -644 28 -644q4 -32 52 -88q0 -8 -24 -12l-176 -4q-280 0 -280 16l-4 24v4q52 29 80 76q36 54 36 336l4 164q0 370 -84 468l-4 16q222 68 384 108z" />
<glyph unicode="&#xed;" horiz-adv-x="716" d="M452 1462h12l152 -132q-252 -124 -440 -124l-4 4v4q196 93 280 248zM516 1202l4 -4v-4q-16 -56 -16 -232v-224q0 -644 28 -644q4 -32 52 -88q0 -8 -24 -12l-176 -4q-280 0 -280 16l-4 24v4q52 29 80 76q36 54 36 336l4 164q0 370 -84 468l-4 16q222 68 384 108z" />
<glyph unicode="&#xee;" horiz-adv-x="896" d="M428 1486q9 0 268 -196q46 -32 96 -32l4 -8v-4q0 -44 -56 -100q0 21 -188 144q-10 10 -120 84h-4q-94 -58 -184 -128l-96 -100h-8q0 11 -40 100q183 170 328 240zM600 1198l4 -8q-16 -31 -16 -356q0 -756 32 -756q6 -27 48 -76v-4q-41 -8 -128 -8h-136q-216 0 -216 16 l-4 20q0 6 60 48q56 54 56 344q4 129 4 176q0 394 -84 484v16q189 56 380 104z" />
<glyph unicode="&#xef;" horiz-adv-x="684" d="M232 1394q72 -19 72 -64q0 -8 -56 -72q0 -16 -8 -16q-64 31 -88 80q0 22 72 72h8zM504 1394q72 -20 72 -64q0 -8 -56 -72q0 -16 -8 -16q-88 48 -88 80q0 22 72 72h8zM516 1198q4 -8 4 -12q-12 -62 -12 -156v-448q0 -508 32 -508q0 -18 44 -72q0 -12 -52 -12h-316 q-112 0 -112 20q0 12 -4 12q0 8 60 48q60 57 60 388v148q0 363 -72 460q-12 4 -12 24q160 52 380 108z" />
<glyph unicode="&#xf1;" horiz-adv-x="1168" d="M436 1406q37 0 296 -32l192 20l4 -8v-4q-102 -124 -296 -124h-8q-20 0 -200 44h-68q-38 0 -116 -16l-8 12q0 30 76 76q48 29 128 32zM1036 1202q28 0 32 -100q-20 -451 -20 -732v-32q0 -117 16 -324l-4 -16h-4q-163 64 -500 396q-57 61 -116 136h-8l-4 -20v-68 q0 -440 36 -440v-4q-24 -8 -104 -8h-132q-120 0 -120 20v8q36 40 36 44q8 259 8 476v280q0 73 -4 204q-5 27 -48 72v8q0 19 176 48q149 48 160 48q12 -15 12 -36v-56q0 -220 300 -528h8q20 0 28 432q0 91 -56 128v4q1 8 8 8q47 0 300 52z" />
<glyph unicode="&#xf2;" horiz-adv-x="1244" d="M564 1452q78 -152 280 -248v-4l-12 -4q-176 0 -432 120v4q143 132 164 132zM524 1188q180 0 372 -220q131 -194 196 -360q52 -124 52 -140v-4q0 -11 -288 -284q-112 -116 -112 -184l4 -12l-4 -4h-8q-143 0 -344 144q-110 101 -216 324q-76 143 -76 208q0 22 248 260 q168 179 168 236v12l-4 20zM376 668q48 -142 140 -272q142 -160 184 -160l8 12v48q139 129 148 164q-20 134 -200 364q-55 52 -80 52h-16q-184 -165 -184 -204v-4z" />
<glyph unicode="&#xf3;" horiz-adv-x="1244" d="M684 1452h8l152 -132q-31 -27 -240 -96q-117 -28 -200 -28l-4 4v4q112 48 220 156zM524 1188q185 0 372 -224q142 -194 248 -496q0 -16 -288 -288q-112 -114 -112 -192l4 -4l-4 -4h-12q-135 0 -336 140q-128 123 -216 324q-80 147 -80 212q0 18 292 308q124 137 124 188 v12l-4 20zM376 672q65 -199 196 -340q100 -96 128 -96l8 12v48q148 141 148 160q-18 134 -200 368q-52 52 -84 52h-12q-184 -167 -184 -204z" />
<glyph unicode="&#xf4;" horiz-adv-x="1236" d="M596 1440q7 0 264 -196q50 -36 104 -36q0 -4 4 -12q-27 -82 -56 -96q-68 65 -312 224h-4l-156 -108q-62 -53 -124 -124q-44 96 -44 104q138 136 324 244zM512 1188h4q261 0 484 -396q90 -176 136 -320v-8q0 -8 -320 -316q-80 -98 -80 -168h-4q-156 0 -364 168 q-116 127 -176 272q-85 138 -92 236v8q404 409 404 452l8 28v44zM372 668q107 -301 304 -428h20q8 0 8 8v32q0 20 100 112q48 50 48 72q-25 154 -220 384q-39 32 -68 32h-4q-119 -94 -184 -188q-4 -6 -4 -24z" />
<glyph unicode="&#xf5;" horiz-adv-x="1236" d="M452 1396h40q34 0 276 -28q42 0 184 20q8 -4 12 -4v-8q-96 -108 -184 -108q-22 -11 -116 -20q-195 48 -232 48h-16q-128 -12 -144 -12l-4 8q0 48 132 96q18 8 52 8zM524 1188q128 0 296 -144q191 -208 316 -568v-12q0 -10 -308 -304q-92 -106 -92 -180h-8 q-142 0 -344 152q-93 81 -208 312q-76 143 -76 212q0 22 276 288q136 158 136 204v32q0 8 12 8zM372 676q41 -172 204 -356q91 -84 116 -84q6 0 12 12v32q0 22 104 112q44 53 44 68q-16 141 -216 384q-46 36 -72 36q-80 -52 -192 -192v-12z" />
<glyph unicode="&#xf6;" horiz-adv-x="1244" d="M488 1400q76 -22 76 -76q-64 -61 -64 -84h-4q-84 47 -88 88q21 45 80 72zM756 1400q80 -21 80 -76q-60 -56 -60 -68q0 -16 -8 -16q-84 47 -88 84q0 30 76 76zM520 1192q160 0 336 -176q103 -127 164 -248q124 -272 124 -296q0 -18 -312 -312q-88 -103 -88 -164l4 -12 l-4 -4q-139 0 -344 140q-116 109 -196 276q-104 194 -104 264q0 18 276 288q140 155 140 208v12l-4 20l4 4h4zM376 676q18 -86 136 -272q146 -164 184 -164l12 4v56q140 131 148 160q-41 186 -216 380q-40 40 -64 40h-4q-26 0 -192 -184z" />
<glyph unicode="&#xf8;" horiz-adv-x="1360" d="M560 1188q154 0 332 -176q36 42 36 92q0 22 -8 68q6 16 12 16q70 0 316 -204q12 0 12 -16q-7 -20 -184 -128q-40 -35 -40 -44q74 -136 140 -324q0 -16 -308 -308q-92 -104 -92 -180q-4 0 -4 -4q-136 0 -356 156h-4q-24 -48 -24 -72v-16l4 -40l-8 -4q-23 0 -256 204 q-28 19 -28 24v4q0 30 88 56q72 61 72 68q-124 223 -124 296q0 22 280 292q136 155 136 208v8l-4 20q8 4 12 4zM412 692v-20q0 -34 52 -124h8q109 100 240 248q-59 84 -100 84h-16q-150 -132 -184 -188zM592 352q47 -60 124 -112h16q6 0 12 12v44q144 134 144 164v16 q0 23 -40 116h-12q-244 -229 -244 -240z" />
<glyph unicode="&#xf9;" horiz-adv-x="1172" d="M516 1444h8l60 -84q101 -108 212 -160q12 0 12 -8l-12 -4q-176 0 -432 120v8zM1020 1204l8 -8l-12 -400v-76q0 -344 56 -720l-4 -4h-16q-114 31 -236 144h-8q-153 -170 -188 -200h-24q-143 0 -416 288q-28 16 -28 48l-4 180l8 476q0 78 -56 120v8q72 0 352 120h4l8 -16 q-36 -352 -36 -476v-12q0 -329 188 -484h4q43 0 164 164l-4 168v272q0 288 -44 288l-16 20v12q194 40 300 88z" />
<glyph unicode="&#xfa;" horiz-adv-x="1180" d="M652 1444h4l156 -132q-45 -37 -260 -104q-104 -20 -164 -20h-12l-8 8q180 83 252 204zM1028 1204l8 -20q-16 -207 -16 -416q0 -409 60 -768l-4 -4h-16q-102 27 -228 132l-12 16q-8 0 -160 -172q-31 -32 -48 -32q-161 0 -452 312l-4 44v8l-4 148l8 492q0 65 -60 108 q206 56 352 124h8l12 -16q-40 -324 -40 -480q0 -337 192 -488h8q123 91 156 164l-4 172l4 232q0 328 -52 328l-12 16v4q3 9 196 52z" />
<glyph unicode="&#xfb;" horiz-adv-x="1168" d="M560 1544q52 -34 260 -192q31 -28 108 -40q0 -4 4 -12q-27 -82 -56 -96h-4q-29 39 -248 188q-50 33 -60 36q-113 -51 -284 -228h-4l-40 100q162 157 324 244zM1016 1200q9 -20 12 -20l-4 -16q-12 -261 -12 -400q0 -386 56 -764l-8 -4h-4q-93 18 -248 144q-10 0 -184 -196 l-28 -4q-146 0 -420 292q-28 0 -28 64v32q0 98 -4 124q4 60 8 496q0 56 -52 100q2 6 160 48l184 76h8q4 0 12 -16q-40 -300 -40 -472q0 -353 192 -496h8q85 54 156 160v4q0 73 -4 176q4 179 4 232q0 324 -48 324l-12 16v12q183 36 292 84q0 4 4 4z" />
<glyph unicode="&#xfc;" horiz-adv-x="1176" d="M452 1396q76 -22 76 -76l-56 -56q-5 -28 -12 -28q-88 52 -88 88q14 40 80 72zM720 1396q80 -21 80 -72q-4 -12 -60 -64q0 -24 -8 -24q-88 52 -88 88q5 29 76 72zM1024 1204l8 -12q-16 -233 -16 -424q0 -414 60 -764l-12 -8q-93 13 -252 148q-182 -204 -200 -204h-12 q-126 0 -364 232l-80 80l-4 40v12l-4 148l8 488q0 73 -56 108v4q0 6 160 48l196 80l12 -12q-40 -342 -40 -472q0 -355 192 -504q75 29 164 168l-4 168l4 224q0 336 -52 336l-12 16v4q0 10 192 52z" />
<glyph unicode="&#xff;" horiz-adv-x="1324" d="M532 1402q37 0 72 -60q0 -7 -60 -76q0 -16 -8 -16q-72 40 -88 80q0 22 72 72h12zM788 1402h16q68 -22 68 -64v-4q-60 -57 -60 -84h-4q-71 39 -88 80q0 19 68 72zM132 1198h36q230 -8 256 -8h48q30 0 32 -16q-16 -55 -16 -64v-28q0 -52 156 -224q8 -4 12 -4q12 0 112 148 q40 70 40 104v4q0 19 -24 72l12 16q67 -12 272 -16q82 4 148 4q8 -10 8 -16l-296 -348q-140 -144 -140 -316q-4 -106 -4 -168q0 -220 80 -284q0 -2 28 -44v-12q-4 0 -12 -4q-270 -4 -308 -4q-16 0 -152 4q-24 9 -24 32q0 13 76 72q24 23 36 184q16 126 16 184v32q0 29 -8 88 l36 48v4q0 23 -40 36q0 9 -212 268q-151 230 -196 232q0 8 -4 8q2 16 32 16z" />
<glyph unicode="&#x152;" horiz-adv-x="2352" d="M700 1724q167 0 376 -156q102 -97 160 -164q7 0 64 108q85 121 176 196q53 -40 304 -40q472 -16 472 -28v-4l-160 -240q-38 -73 -68 -152q-3 0 -24 -4q-42 0 -88 68q-82 71 -132 72h-32q-36 0 -36 -224q0 -148 20 -148h212q63 0 208 4v-4q-144 -285 -144 -312 q-11 -44 -36 -44q-69 0 -92 64q-57 56 -104 56h-24q-52 0 -52 -152v-60q0 -192 28 -192q23 0 132 -4q148 0 364 8l4 -8q0 -8 -132 -228q-40 -90 -48 -152q-4 0 -12 -4q-83 16 -196 16q-428 -12 -532 -12q-60 0 -60 36q0 11 40 72q12 48 12 260q0 7 4 48h-4 q-123 -99 -228 -236q-52 -86 -52 -120v-40q0 -8 -8 -8q-203 0 -492 208q-165 150 -316 472q-93 168 -104 284q0 38 268 288q324 327 324 416v44l-4 8zM492 988q54 -228 292 -504q133 -120 168 -120q6 0 16 16v52q0 4 -4 4q1 15 164 168q48 61 48 64v24q-31 190 -252 472 q-55 85 -140 116h-28q-264 -231 -264 -292z" />
<glyph unicode="&#x153;" horiz-adv-x="1704" d="M520 1210q108 -11 228 -84q63 -47 144 -140h4q44 95 164 208h8q0 -24 516 -36q20 -6 20 -12v-4q-131 -179 -160 -268q-14 -4 -16 -4q-23 0 -80 64q-48 36 -88 36q-32 0 -32 -140v-48q0 -76 20 -76h112q62 0 168 4l4 -8v-8q-75 -133 -112 -232q-4 0 -12 -4q-43 0 -76 60 q-37 24 -60 24h-24q-28 0 -28 -112v-76q0 -96 28 -96h228q34 0 108 4l4 -8v-4q-128 -197 -128 -260h-4q-72 8 -116 8q-65 0 -396 -8q-40 5 -40 16v16q36 20 36 196v60h-8q-188 -170 -188 -244v-24q0 -6 -12 -12q-146 0 -364 168q-124 139 -236 392q-32 75 -32 116v8 q0 7 328 340q84 109 84 144v32zM372 690q103 -298 308 -432h16q6 0 12 12v20q0 9 -4 16q141 144 148 164v24q-38 165 -220 376q-43 28 -56 28h-8q-34 0 -192 -184q-4 -21 -4 -24z" />
<glyph unicode="&#x178;" horiz-adv-x="1804" d="M712 2006q59 0 104 -84v-16q-80 -87 -80 -96q-4 -21 -4 -24q-132 63 -132 116v4q15 49 104 100h8zM1096 2006q71 0 108 -92v-8l-80 -88q-4 -32 -12 -32h-4q-113 65 -124 116q10 48 108 104h4zM160 1714h36q295 -12 328 -12h116q31 0 36 -16l-24 -112v-24q0 -70 220 -320 q0 -8 20 -8h4q167 195 200 308q12 14 12 40v28q0 14 -32 96v4q0 6 20 16q35 -16 376 -24q78 4 228 4l4 -8v-12q0 -22 -236 -276q-336 -395 -336 -436q-56 -112 -56 -468q23 -344 60 -344l96 -136v-16q-8 0 -8 -4q-106 -4 -168 -4h-484q-48 0 -48 52q0 21 92 84q60 54 60 268 q32 186 32 292q-4 80 -16 148q0 13 52 72v12q0 25 -44 36q-87 115 -264 324q-81 105 -232 324q-39 47 -104 80v16q0 16 60 16z" />
<glyph unicode="&#x20ac;" horiz-adv-x="1524" d="M1060 1306q74 0 288 -36h28l48 4v-4l-188 -316h-16q-8 0 -44 68q-59 64 -128 64h-20q-155 0 -300 -208v-4l32 -8h184l96 4l76 -4l4 -4v-4l-216 -192h-8q-122 40 -212 40l-4 4q-28 0 -28 -48v-28l-4 -4q0 -24 36 -24h80l44 -4l52 4h168q44 0 44 -36q-4 -34 -96 -148 l-60 -8q-50 0 -196 36l-16 -12v-4q0 -55 156 -168q121 -72 260 -72q157 0 300 100l4 -4q-107 -191 -352 -276q-81 -24 -148 -24h-32q-283 0 -440 300l-48 140l-12 4l-108 -4h-140q-36 0 -36 32q0 27 136 144q144 4 144 20v36l4 36l-8 16l-80 -4h-204v4q93 93 160 176l156 -8 q27 0 68 112q194 312 576 312z" />
<glyph unicode="&#x25fc;" horiz-adv-x="1200" d="M0 1200h1200v-1200h-1200v1200z" />
</font>
</defs>
</svg>
